<svg xmlns="http://www.w3.org/2000/svg"><defs> <rect id="f680fc776b38a07ddae8f4f1a131da03SVGID_3_" width="63.787" height="137.271"/>  <rect id="e74d02b79f0221b6b11e637a7e71bf18SVGID_1_" width="183.263" height="148.939"/> </defs><symbol viewbox="0 0 63.787 137.271" id="facebook"><title>facebook</title> <g>  <clippath id="f680fc776b38a07ddae8f4f1a131da03SVGID_2_"> <use xlink:href="#SVGID_3_" overflow="visible"/> </clippath> <path clip-path="url(#f680fc776b38a07ddae8f4f1a131da03SVGID_2_)" fill="#231F20" d="M63.787,44.45H42.068V30.202c0-5.35,3.541-6.597,6.038-6.597h15.329V0.086
		L42.323,0C18.885,0,13.551,17.544,13.551,28.771v15.68H0v24.234h13.551v68.586h28.517V68.685h19.23L63.787,44.45z"/> </g> </symbol><symbol viewbox="0 0 183.263 148.939" id="twitter"><title>twitter</title> <g>  <clippath id="e74d02b79f0221b6b11e637a7e71bf18SVGID_2_"> <use xlink:href="#SVGID_1_" overflow="visible"/> </clippath> <path clip-path="url(#e74d02b79f0221b6b11e637a7e71bf18SVGID_2_)" fill="#231F20" d="M183.263,17.63c-6.735,2.996-13.987,5.016-21.594,5.918
		c7.764-4.65,13.725-12.016,16.533-20.802c-7.266,4.312-15.309,7.44-23.875,9.129C147.468,4.568,137.695,0,126.884,0
		c-20.762,0-37.601,16.838-37.601,37.601c0,2.946,0.336,5.814,0.976,8.566C59.01,44.602,31.301,29.636,12.761,6.883
		c-3.237,5.555-5.093,12.008-5.093,18.902c0,13.048,6.641,24.553,16.726,31.298c-6.162-0.198-11.959-1.886-17.027-4.707
		c-0.004,0.156-0.004,0.316-0.004,0.476c0,18.213,12.96,33.412,30.163,36.867c-3.154,0.861-6.476,1.322-9.905,1.322
		c-2.427,0-4.781-0.236-7.077-0.679c4.788,14.938,18.671,25.812,35.122,26.113c-12.868,10.085-29.08,16.094-46.694,16.094
		c-3.035,0-6.027-0.178-8.97-0.523c16.641,10.67,36.406,16.893,57.637,16.893c69.16,0,106.975-57.295,106.975-106.979
		c0-1.629-0.033-3.255-0.105-4.866C171.852,31.797,178.228,25.171,183.263,17.63"/> </g> </symbol></svg>