<?xml version="1.0" encoding="utf-8"?>
<!-- Generator: Adobe Illustrator 16.0.0, SVG Export Plug-In . SVG Version: 6.00 Build 0)  -->
<!DOCTYPE svg PUBLIC "-//W3C//DTD SVG 1.1 Tiny//EN" "http://www.w3.org/Graphics/SVG/1.1/DTD/svg11-tiny.dtd">
<svg version="1.1" baseProfile="tiny" id="Layer_4" xmlns="http://www.w3.org/2000/svg" xmlns:xlink="http://www.w3.org/1999/xlink"
	 x="0px" y="0px" width="58.349px" height="53px" viewBox="441.322 -594.268 58.349 53" xml:space="preserve">
<g>
	<path fill="none" d="M480.064-542.768h6.433v-14.388h-6.433c-3.966,0.001-7.192,3.228-7.192,7.194
		C472.872-545.997,476.099-542.77,480.064-542.768z"/>
	<path fill="none" d="M449.257-592.768h-6.435v14.388h6.435c3.965-0.002,7.191-3.229,7.191-7.195
		C456.448-589.54,453.222-592.767,449.257-592.768z"/>
	<path d="M450.873-567.124l39.247,0.004c5.267,0,9.551-4.284,9.551-9.55s-4.284-9.55-9.551-9.55h-32.204
		c-0.333-4.491-4.084-8.046-8.659-8.048h-7.185c-0.414,0-0.75,0.336-0.75,0.75v15.888c0,0.414,0.336,0.75,0.75,0.75h7.185
		c4.504-0.002,8.217-3.448,8.648-7.84h32.215c4.439,0,8.051,3.611,8.051,8.05s-3.611,8.05-8.051,8.05l-39.247-0.004
		c-5.267,0-9.551,4.285-9.551,9.551s4.284,9.55,9.551,9.55h20.521c0.23,4.587,4.025,8.253,8.67,8.255h7.183
		c0.414,0,0.75-0.336,0.75-0.75v-3.562h7.161c0.414,0,0.75-0.336,0.75-0.75s-0.336-0.75-0.75-0.75h-7.161v-5.735h7.161
		c0.414,0,0.75-0.336,0.75-0.75s-0.336-0.75-0.75-0.75h-7.161v-3.591c0-0.414-0.336-0.75-0.75-0.75h-7.183
		c-4.433,0.001-8.095,3.339-8.621,7.633h-20.57c-4.439,0-8.051-3.611-8.051-8.05C442.822-563.513,446.434-567.124,450.873-567.124z
		 M449.257-578.38h-6.435v-14.388h6.435c3.965,0.001,7.191,3.228,7.191,7.193C456.448-581.61,453.222-578.382,449.257-578.38z
		 M480.064-557.156h6.433v14.388h-6.433c-3.966-0.002-7.192-3.229-7.192-7.193C472.872-553.928,476.099-557.155,480.064-557.156z"/>
</g>
</svg>
