<svg baseProfile="tiny" xmlns="http://www.w3.org/2000/svg" width="58.349" height="53" viewBox="441.322 -594.268 58.349 53"><path d="M480.064-542.768h6.433v-14.388h-6.433c-3.966.001-7.192 3.228-7.192 7.194 0 3.965 3.227 7.192 7.192 7.194zm-30.807-50h-6.435v14.388h6.435c3.965-.002 7.191-3.229 7.191-7.195 0-3.965-3.226-7.192-7.191-7.193z" fill="none"/><path d="M450.873-567.124l39.247.004c5.267 0 9.551-4.284 9.551-9.55s-4.284-9.55-9.551-9.55h-32.204c-.333-4.491-4.084-8.046-8.659-8.048h-7.185c-.414 0-.75.336-.75.75v15.888c0 .414.336.75.75.75h7.185c4.504-.002 8.217-3.448 8.648-7.84h32.215c4.439 0 8.051 3.611 8.051 8.05s-3.611 8.05-8.051 8.05l-39.247-.004c-5.267 0-9.551 4.285-9.551 9.551s4.284 9.55 9.551 9.55h20.521c.23 4.587 4.025 8.253 8.67 8.255h7.183c.414 0 .75-.336.75-.75v-3.562h7.161c.414 0 .75-.336.75-.75s-.336-.75-.75-.75h-7.161v-5.735h7.161c.414 0 .75-.336.75-.75s-.336-.75-.75-.75h-7.161v-3.591c0-.414-.336-.75-.75-.75h-7.183c-4.433.001-8.095 3.339-8.621 7.633h-20.57c-4.439 0-8.051-3.611-8.051-8.05 0-4.44 3.612-8.051 8.051-8.051zm-1.616-11.256h-6.435v-14.388h6.435c3.965.001 7.191 3.228 7.191 7.193 0 3.965-3.226 7.193-7.191 7.195zm30.807 21.224h6.433v14.388h-6.433c-3.966-.002-7.192-3.229-7.192-7.193 0-3.967 3.227-7.194 7.192-7.195z"/></svg>