<?xml version="1.0" encoding="utf-8"?>
<!-- Generator: Adobe Illustrator 16.0.0, SVG Export Plug-In . SVG Version: 6.00 Build 0)  -->
<!DOCTYPE svg PUBLIC "-//W3C//DTD SVG 1.1 Tiny//EN" "http://www.w3.org/Graphics/SVG/1.1/DTD/svg11-tiny.dtd">
<svg version="1.1" baseProfile="tiny" id="Layer_4" xmlns="http://www.w3.org/2000/svg" xmlns:xlink="http://www.w3.org/1999/xlink"
	 x="0px" y="0px" width="44.88px" height="51.5px" viewBox="1993.16 -584.702 44.88 51.5" xml:space="preserve">
<g>
	<path fill="none" d="M2004.509-573.452c-5.431,0-9.849,4.315-9.849,9.619v12.03c0,5.304,4.418,9.62,9.849,9.62h12.295
		c5.432,0,9.851-4.315,9.851-9.62v-12.03c0-5.304-4.419-9.619-9.851-9.619H2004.509z"/>
	<path d="M2004.509-574.952c-6.258,0-11.349,4.988-11.349,11.119v12.03c0,6.131,5.091,11.12,11.349,11.12h5.262v5.981h-12.972
		c-0.414,0-0.75,0.336-0.75,0.75s0.336,0.75,0.75,0.75h27.684c0.414,0,0.75-0.336,0.75-0.75s-0.336-0.75-0.75-0.75h-13.212v-5.981
		h5.533c6.259,0,11.351-4.988,11.351-11.12v-12.03c0-6.131-5.092-11.119-11.351-11.119H2004.509z M2026.654-563.833v12.03
		c0,5.304-4.419,9.62-9.851,9.62h-12.295c-5.431,0-9.849-4.315-9.849-9.62v-12.03c0-5.304,4.418-9.619,9.849-9.619h12.295
		C2022.235-573.452,2026.654-569.137,2026.654-563.833z"/>
	<path d="M2032.264-569.268c0,0.414,0.336,0.75,0.75,0.75s0.75-0.336,0.75-0.75c0-6.132-5.093-11.121-11.352-11.121
		c-0.414,0-0.75,0.336-0.75,0.75s0.336,0.75,0.75,0.75C2027.845-578.888,2032.264-574.572,2032.264-569.268z"/>
	<path d="M2029.959-584.702c-0.414,0-0.75,0.336-0.75,0.75s0.336,0.75,0.75,0.75c3.629,0,6.581,2.881,6.581,6.423
		c0,0.414,0.336,0.75,0.75,0.75s0.75-0.336,0.75-0.75C2038.04-581.148,2034.415-584.702,2029.959-584.702z"/>
</g>
</svg>
