<svg baseProfile="tiny" xmlns="http://www.w3.org/2000/svg" width="44.88" height="51.5" viewBox="1993.16 -584.702 44.88 51.5"><path d="M2004.509-573.452c-5.431 0-9.849 4.315-9.849 9.619v12.03c0 5.304 4.418 9.62 9.849 9.62h12.295c5.432 0 9.851-4.315 9.851-9.62v-12.03c0-5.304-4.419-9.619-9.851-9.619h-12.295z" fill="none"/><path d="M2004.509-574.952c-6.258 0-11.349 4.988-11.349 11.119v12.03c0 6.131 5.091 11.12 11.349 11.12h5.262v5.981h-12.972c-.414 0-.75.336-.75.75s.336.75.75.75h27.684c.414 0 .75-.336.75-.75s-.336-.75-.75-.75h-13.212v-5.981h5.533c6.259 0 11.351-4.988 11.351-11.12v-12.03c0-6.131-5.092-11.119-11.351-11.119h-12.295zm22.145 11.119v12.03c0 5.304-4.419 9.62-9.851 9.62h-12.295c-5.431 0-9.849-4.315-9.849-9.62v-12.03c0-5.304 4.418-9.619 9.849-9.619h12.295c5.432 0 9.851 4.315 9.851 9.619zM2032.264-569.268c0 .414.336.75.75.75s.75-.336.75-.75c0-6.132-5.093-11.121-11.352-11.121-.414 0-.75.336-.75.75s.336.75.75.75c5.433.001 9.852 4.317 9.852 9.621zM2029.959-584.702c-.414 0-.75.336-.75.75s.336.75.75.75c3.629 0 6.581 2.881 6.581 6.423 0 .414.336.75.75.75s.75-.336.75-.75c0-4.369-3.625-7.923-8.081-7.923z"/></svg>