<?xml version="1.0" encoding="utf-8"?>
<!-- Generator: Adobe Illustrator 16.0.0, SVG Export Plug-In . SVG Version: 6.00 Build 0)  -->
<!DOCTYPE svg PUBLIC "-//W3C//DTD SVG 1.1 Tiny//EN" "http://www.w3.org/Graphics/SVG/1.1/DTD/svg11-tiny.dtd">
<svg version="1.1" baseProfile="tiny" id="Layer_4" xmlns="http://www.w3.org/2000/svg" xmlns:xlink="http://www.w3.org/1999/xlink"
	 x="0px" y="0px" width="60.864px" height="51.5px" viewBox="1865.481 -584.025 60.864 51.5" xml:space="preserve">
<path fill="none" d="M1897.031-566.351l-0.482-6.853c-0.001-0.018,0.007-0.033,0.006-0.05l-8.215-1.223l0.951,8.125H1897.031z"/>
<path fill="none" d="M1886.806-574.683c-0.001-0.007,0.003-0.014,0.002-0.021l-8.018-1.194l1.702,9.596
	c0.076-0.026,0.156-0.049,0.242-0.049h7.045L1886.806-574.683z"/>
<polygon fill="none" points="1897.137,-564.851 1889.466,-564.851 1890.294,-557.768 1897.635,-557.768 "/>
<path fill="none" d="M1882.257-556.268l0.675,3.805c0.383,2.153,1.046,3.158,3.822,3.046l2.99-0.139l-0.785-6.712H1882.257z"/>
<path fill="none" d="M1887.955-564.851h-7.206l1.167,6.583c0.004,0.024-0.004,0.046-0.002,0.07l0.079,0.444
	c0.024-0.002,0.045-0.014,0.069-0.014h6.721L1887.955-564.851z"/>
<polygon fill="none" points="1890.47,-556.268 1891.246,-549.625 1898.186,-549.947 1897.741,-556.268 "/>
<path fill="none" d="M1883.357-537.234c0,1.77,1.44,3.209,3.21,3.209c1.769,0,3.208-1.44,3.208-3.209
	c0-1.771-1.439-3.211-3.208-3.211C1884.798-540.445,1883.357-539.005,1883.357-537.234z"/>
<polygon fill="none" points="1899.685,-550.017 1906.416,-550.328 1906.416,-556.268 1899.244,-556.268 "/>
<polygon fill="none" points="1907.916,-557.768 1915.163,-557.768 1915.445,-564.851 1907.916,-564.851 "/>
<polygon fill="none" points="1907.916,-550.397 1914.883,-550.72 1915.104,-556.268 1907.916,-556.268 "/>
<polygon fill="none" points="1898.535,-566.351 1906.416,-566.351 1906.416,-571.785 1898.064,-573.028 "/>
<polygon fill="none" points="1907.916,-566.351 1915.505,-566.351 1915.666,-570.408 1907.916,-571.562 "/>
<polygon fill="none" points="1899.139,-557.768 1906.416,-557.768 1906.416,-564.851 1898.641,-564.851 "/>
<path fill="none" d="M1917.158-570.186l-0.152,3.835h7.533c0.109,0,0.211,0.025,0.305,0.067c0.029-2.275-0.83-2.869-2.436-3.121
	L1917.158-570.186z"/>
<path fill="none" d="M1914.662-537.234c0,1.77,1.439,3.209,3.209,3.209c1.769,0,3.208-1.44,3.208-3.209
	c0-1.771-1.439-3.211-3.208-3.211C1916.102-540.445,1914.662-539.005,1914.662-537.234z"/>
<path fill="none" d="M1916.945-564.851l-0.281,7.083h7.39c0.007,0,0.012,0.003,0.019,0.003l0.678-7.129
	c-0.068,0.021-0.136,0.043-0.211,0.043H1916.945z"/>
<path fill="none" d="M1916.386-550.79l4.433-0.205c2.421-0.134,2.725-1.212,2.828-2.304l0.283-2.969h-7.326L1916.386-550.79z"/>
<path d="M1907.506-573.139c-0.104-0.054-0.216-0.091-0.34-0.091c-0.041,0-0.076,0.017-0.115,0.023l-28.537-4.249l-0.31-1.749
	c-0.259-1.449-1.377-4.82-6.168-4.82h-5.805c-0.414,0-0.75,0.336-0.75,0.75s0.336,0.75,0.75,0.75h5.805
	c3.525,0,4.452,2.246,4.691,3.583l0.834,4.703c0.002,0.027-0.007,0.052-0.002,0.079l3.896,21.959
	c0.397,2.236,1.279,4.292,4.939,4.291c0.138,0,0.279-0.003,0.425-0.009l0.22-0.01l-0.465,5.984c-0.002,0-0.004,0-0.007,0
	c-2.597,0-4.71,2.113-4.71,4.711c0,2.597,2.113,4.709,4.71,4.709c2.596,0,4.708-2.113,4.708-4.709c0-2.073-1.354-3.817-3.217-4.446
	l0.491-6.319l26.491-1.227l1.373,7.535c-1.881,0.618-3.252,2.371-3.252,4.457c0,2.597,2.112,4.709,4.709,4.709
	c2.596,0,4.708-2.113,4.708-4.709c0-2.59-2.101-4.696-4.686-4.708l-1.339-7.353l4.341-0.201c3.512-0.195,4.104-2.183,4.245-3.66
	l1.146-12.039c0.335-3.535-0.756-5.236-3.652-5.69L1907.506-573.139z M1896.555-573.253c0.001,0.017-0.007,0.032-0.006,0.05
	l0.482,6.853h-7.74l-0.951-8.125L1896.555-573.253z M1880.492-566.302l-1.702-9.596l8.018,1.194
	c0.001,0.007-0.003,0.014-0.002,0.021l0.974,8.332h-7.045C1880.648-566.351,1880.568-566.328,1880.492-566.302z M1881.993-557.754
	l-0.079-0.444c-0.002-0.024,0.006-0.046,0.002-0.07l-1.167-6.583h7.206l0.828,7.083h-6.721
	C1882.038-557.768,1882.018-557.756,1881.993-557.754z M1889.775-537.234c0,1.77-1.439,3.209-3.208,3.209
	c-1.77,0-3.21-1.44-3.21-3.209c0-1.771,1.44-3.211,3.21-3.211C1888.336-540.445,1889.775-539.005,1889.775-537.234z
	 M1886.754-549.417c-2.776,0.112-3.439-0.893-3.822-3.046l-0.675-3.805h6.702l0.785,6.712L1886.754-549.417z M1889.466-564.851
	h7.671l0.498,7.083h-7.341L1889.466-564.851z M1891.246-549.625l-0.776-6.643h7.271l0.444,6.321L1891.246-549.625z
	 M1906.416-550.328l-6.731,0.312l-0.44-6.251h7.172V-550.328z M1906.416-557.768h-7.277l-0.498-7.083h7.775V-557.768z
	 M1906.416-566.351h-7.881l-0.471-6.678l8.352,1.244V-566.351z M1914.883-550.72l-6.967,0.323v-5.871h7.188L1914.883-550.72z
	 M1915.163-557.768h-7.247v-7.083h7.529L1915.163-557.768z M1915.505-566.351h-7.589v-5.211l7.75,1.154L1915.505-566.351z
	 M1917.871-540.445c1.769,0,3.208,1.44,3.208,3.211c0,1.77-1.439,3.209-3.208,3.209c-1.77,0-3.209-1.44-3.209-3.209
	C1914.662-539.005,1916.102-540.445,1917.871-540.445z M1923.646-553.299c-0.104,1.092-0.407,2.17-2.828,2.304l-4.433,0.205
	l0.218-5.478h7.326L1923.646-553.299z M1924.072-557.765c-0.007,0-0.012-0.003-0.019-0.003h-7.39l0.281-7.083h7.594
	c0.075,0,0.143-0.022,0.211-0.043L1924.072-557.765z M1924.844-566.283c-0.094-0.042-0.195-0.067-0.305-0.067h-7.533l0.152-3.835
	l5.25,0.782C1924.014-569.152,1924.873-568.559,1924.844-566.283z"/>
</svg>
