<svg baseProfile="tiny" xmlns="http://www.w3.org/2000/svg" width="60.864" height="51.5" viewBox="1865.481 -584.025 60.864 51.5"><path d="M1897.031-566.351l-.482-6.853.006-.05-8.215-1.223.951 8.125h7.74zm-10.225-8.332l.002-.021-8.018-1.194 1.702 9.596.242-.049h7.045l-.973-8.332zm10.331 9.832h-7.671l.828 7.083h7.341zm-14.88 8.583l.675 3.805c.383 2.153 1.046 3.158 3.822 3.046l2.99-.139-.785-6.712h-6.702zm5.698-8.583h-7.206l1.167 6.583-.002.07.079.444.069-.014h6.721l-.828-7.083zm2.515 8.583l.776 6.643 6.94-.322-.445-6.321zm-7.113 19.034c0 1.77 1.44 3.209 3.21 3.209 1.769 0 3.208-1.44 3.208-3.209 0-1.771-1.439-3.211-3.208-3.211-1.769 0-3.21 1.44-3.21 3.211zm16.328-12.783l6.731-.311v-5.94h-7.172zm8.231-7.751h7.247l.282-7.083h-7.529zm0 7.371l6.967-.323.221-5.548h-7.188zm-9.381-15.954h7.881v-5.434l-8.352-1.243zm9.381 0h7.589l.161-4.057-7.75-1.154zm-8.777 8.583h7.277v-7.083h-7.775zm18.019-12.418l-.152 3.835h7.533c.109 0 .211.025.305.067.029-2.275-.83-2.869-2.436-3.121l-5.25-.781zm-2.496 32.952c0 1.77 1.439 3.209 3.209 3.209 1.769 0 3.208-1.44 3.208-3.209 0-1.771-1.439-3.211-3.208-3.211-1.769 0-3.209 1.44-3.209 3.211zm2.283-27.617l-.281 7.083h7.39l.019.003.678-7.129-.211.043h-7.595zm-.559 14.061l4.433-.205c2.421-.134 2.725-1.212 2.828-2.304l.283-2.969h-7.326l-.218 5.478z" fill="none"/><path d="M1907.506-573.139c-.104-.054-.216-.091-.34-.091l-.115.023-28.537-4.249-.31-1.749c-.259-1.449-1.377-4.82-6.168-4.82h-5.805c-.414 0-.75.336-.75.75s.336.75.75.75h5.805c3.525 0 4.452 2.246 4.691 3.583l.834 4.703-.002.079 3.896 21.959c.397 2.236 1.279 4.292 4.939 4.291l.425-.009.22-.01-.465 5.984h-.007c-2.597 0-4.71 2.113-4.71 4.711 0 2.597 2.113 4.709 4.71 4.709 2.596 0 4.708-2.113 4.708-4.709 0-2.073-1.354-3.817-3.217-4.446l.491-6.319 26.491-1.227 1.373 7.535c-1.881.618-3.252 2.371-3.252 4.457 0 2.597 2.112 4.709 4.709 4.709 2.596 0 4.708-2.113 4.708-4.709 0-2.59-2.101-4.696-4.686-4.708l-1.339-7.353 4.341-.201c3.512-.195 4.104-2.183 4.245-3.66l1.146-12.039c.335-3.535-.756-5.236-3.652-5.69l-15.127-2.254zm-10.951-.114l-.006.05.482 6.853h-7.74l-.951-8.125 8.215 1.222zm-16.063 6.951l-1.702-9.596 8.018 1.194-.002.021.974 8.332h-7.045l-.243.049zm1.501 8.548l-.079-.444.002-.07-1.167-6.583h7.206l.828 7.083h-6.721l-.069.014zm7.782 20.52c0 1.77-1.439 3.209-3.208 3.209-1.77 0-3.21-1.44-3.21-3.209 0-1.771 1.44-3.211 3.21-3.211 1.769 0 3.208 1.44 3.208 3.211zm-3.021-12.183c-2.776.112-3.439-.893-3.822-3.046l-.675-3.805h6.702l.785 6.712-2.99.139zm2.712-15.434h7.671l.498 7.083h-7.341l-.828-7.083zm1.78 15.226l-.776-6.643h7.271l.444 6.321-6.939.322zm15.17-.703l-6.731.312-.44-6.251h7.172v5.939zm0-7.44h-7.277l-.498-7.083h7.775v7.083zm0-8.583h-7.881l-.471-6.678 8.352 1.244v5.434zm8.467 15.631l-6.967.323v-5.871h7.188l-.221 5.548zm.28-7.048h-7.247v-7.083h7.529l-.282 7.083zm.342-8.583h-7.589v-5.211l7.75 1.154-.161 4.057zm2.366 25.906c1.769 0 3.208 1.44 3.208 3.211 0 1.77-1.439 3.209-3.208 3.209-1.77 0-3.209-1.44-3.209-3.209 0-1.771 1.44-3.211 3.209-3.211zm5.775-12.854c-.104 1.092-.407 2.17-2.828 2.304l-4.433.205.218-5.478h7.326l-.283 2.969zm.426-4.466l-.019-.003h-7.39l.281-7.083h7.594l.211-.043-.677 7.129zm.772-8.518c-.094-.042-.195-.067-.305-.067h-7.533l.152-3.835 5.25.782c1.606.251 2.465.844 2.436 3.12z"/></svg>