<?xml version="1.0" encoding="utf-8"?>
<!-- Generator: Adobe Illustrator 16.0.0, SVG Export Plug-In . SVG Version: 6.00 Build 0)  -->
<!DOCTYPE svg PUBLIC "-//W3C//DTD SVG 1.1 Tiny//EN" "http://www.w3.org/Graphics/SVG/1.1/DTD/svg11-tiny.dtd">
<svg version="1.1" baseProfile="tiny" id="Layer_4" xmlns="http://www.w3.org/2000/svg" xmlns:xlink="http://www.w3.org/1999/xlink"
	 x="0px" y="0px" width="53.92px" height="53.917px" viewBox="523.539 -207.923 53.92 53.917" xml:space="preserve">
<g>
	<g>
		<path fill="#7A9C49" d="M550.499-154.006c-7.201,0-13.973-2.806-19.067-7.899c-10.505-10.514-10.505-27.613,0-38.118
			c5.095-5.094,11.866-7.899,19.067-7.899s13.971,2.805,19.06,7.899c5.095,5.089,7.899,11.857,7.899,19.056
			s-2.805,13.969-7.899,19.062C564.47-156.812,557.7-154.006,550.499-154.006z M550.499-206.422c-6.801,0-13.196,2.649-18.007,7.459
			c-9.92,9.92-9.92,26.068,0,35.997c4.811,4.811,11.206,7.46,18.007,7.46s13.192-2.649,17.999-7.46
			c4.811-4.811,7.46-11.204,7.46-18.002c0-6.798-2.649-13.188-7.46-17.995C563.691-203.773,557.3-206.422,550.499-206.422z"/>
		<path fill="#7A9C49" d="M563.073-180.214h-25.146c-0.414,0-0.75-0.336-0.75-0.75s0.336-0.75,0.75-0.75h25.146
			c0.414,0,0.75,0.336,0.75,0.75S563.487-180.214,563.073-180.214z"/>
		<path fill="#7A9C49" d="M550.5-167.642c-0.414,0-0.75-0.336-0.75-0.75v-25.146c0-0.414,0.336-0.75,0.75-0.75s0.75,0.336,0.75,0.75
			v25.146C551.25-167.978,550.914-167.642,550.5-167.642z"/>
	</g>
</g>
</svg>
