<?xml version="1.0" encoding="utf-8"?>
<!-- Generator: Adobe Illustrator 16.0.0, SVG Export Plug-In . SVG Version: 6.00 Build 0)  -->
<!DOCTYPE svg PUBLIC "-//W3C//DTD SVG 1.1 Tiny//EN" "http://www.w3.org/Graphics/SVG/1.1/DTD/svg11-tiny.dtd">
<svg version="1.1" baseProfile="tiny" id="Layer_4" xmlns="http://www.w3.org/2000/svg" xmlns:xlink="http://www.w3.org/1999/xlink"
	 x="0px" y="0px" width="53.884px" height="53.883px" viewBox="438.66 -207.913 53.884 53.883" xml:space="preserve">
<path fill="#9B9B9C" d="M465.603-154.029c-14.856,0-26.942-12.086-26.942-26.941c0-14.856,12.086-26.942,26.942-26.942
	c14.855,0,26.941,12.086,26.941,26.942C492.544-166.115,480.458-154.029,465.603-154.029z M465.603-206.413
	c-14.029,0-25.442,11.413-25.442,25.442c0,14.028,11.413,25.441,25.442,25.441c14.028,0,25.441-11.413,25.441-25.441
	C491.044-195,479.631-206.413,465.603-206.413z"/>
<path fill="#9B9B9C" d="M456.716-171.334c-0.192,0-0.384-0.073-0.53-0.22c-0.293-0.292-0.293-0.768,0-1.061l17.764-17.769
	c0.293-0.293,0.768-0.293,1.061,0c0.293,0.292,0.293,0.768,0,1.061l-17.764,17.769C457.1-171.407,456.908-171.334,456.716-171.334z"
	/>
<path fill="#9B9B9C" d="M474.479-171.334c-0.192,0-0.384-0.073-0.53-0.22l-17.764-17.765c-0.293-0.293-0.293-0.768,0-1.061
	s0.768-0.293,1.061,0l17.764,17.765c0.293,0.293,0.293,0.768,0,1.061C474.863-171.407,474.672-171.334,474.479-171.334z"/>
</svg>
