<svg baseProfile="tiny" xmlns="http://www.w3.org/2000/svg" width="53.92" height="53.917" viewBox="523.539 -207.923 53.92 53.917"><g fill="#7A9C49"><path d="M550.499-154.006c-7.201 0-13.973-2.806-19.067-7.899-10.505-10.514-10.505-27.613 0-38.118 5.095-5.094 11.866-7.899 19.067-7.899s13.971 2.805 19.06 7.899c5.095 5.089 7.899 11.857 7.899 19.056s-2.805 13.969-7.899 19.062c-5.089 5.093-11.859 7.899-19.06 7.899zm0-52.416c-6.801 0-13.196 2.649-18.007 7.459-9.92 9.92-9.92 26.068 0 35.997 4.811 4.811 11.206 7.46 18.007 7.46s13.192-2.649 17.999-7.46c4.811-4.811 7.46-11.204 7.46-18.002 0-6.798-2.649-13.188-7.46-17.995-4.807-4.81-11.198-7.459-17.999-7.459zM563.073-180.214h-25.146c-.414 0-.75-.336-.75-.75s.336-.75.75-.75h25.146c.414 0 .75.336.75.75s-.336.75-.75.75zM550.5-167.642c-.414 0-.75-.336-.75-.75v-25.146c0-.414.336-.75.75-.75s.75.336.75.75v25.146c0 .414-.336.75-.75.75z"/></g></svg>