<?xml version="1.0" encoding="utf-8"?>
<!-- Generator: Adobe Illustrator 16.0.0, SVG Export Plug-In . SVG Version: 6.00 Build 0)  -->
<!DOCTYPE svg PUBLIC "-//W3C//DTD SVG 1.1 Tiny//EN" "http://www.w3.org/Graphics/SVG/1.1/DTD/svg11-tiny.dtd">
<svg version="1.1" baseProfile="tiny" id="Layer_4" xmlns="http://www.w3.org/2000/svg" xmlns:xlink="http://www.w3.org/1999/xlink"
	 x="0px" y="0px" width="54.281px" height="54.281px" viewBox="606.574 -208.11 54.281 54.281" xml:space="preserve">
<g>
	<g>
		<path fill="#9B9B9C" d="M633.715-153.829c-7.25,0-14.067-2.824-19.195-7.953c-10.576-10.584-10.576-27.8,0-38.376
			c5.128-5.128,11.945-7.953,19.195-7.953c7.251,0,14.065,2.824,19.189,7.953c5.128,5.124,7.952,11.938,7.952,19.185
			s-2.824,14.063-7.952,19.191C647.78-156.653,640.966-153.829,633.715-153.829z M633.715-206.61c-6.85,0-13.29,2.668-18.135,7.513
			c-9.991,9.992-9.991,26.256,0,36.255c4.845,4.845,11.285,7.513,18.135,7.513s13.288-2.668,18.129-7.513
			c4.845-4.845,7.513-11.283,7.513-18.13c0-6.847-2.668-13.284-7.513-18.124C647.003-203.942,640.564-206.61,633.715-206.61z"/>
		<path fill="#9B9B9C" d="M646.376-180.219h-25.32c-0.414,0-0.75-0.336-0.75-0.75s0.336-0.75,0.75-0.75h25.32
			c0.414,0,0.75,0.336,0.75,0.75S646.79-180.219,646.376-180.219z"/>
		<path fill="#9B9B9C" d="M646.368-180.228c-0.192,0-0.384-0.073-0.53-0.22l-12.652-12.651c-0.293-0.293-0.293-0.768,0-1.061
			s0.768-0.293,1.061,0l12.652,12.651c0.293,0.293,0.293,0.768,0,1.061C646.752-180.301,646.561-180.228,646.368-180.228z"/>
		<path fill="#9B9B9C" d="M633.716-167.567c-0.192,0-0.384-0.073-0.53-0.22c-0.293-0.293-0.293-0.768,0-1.061l12.652-12.651
			c0.293-0.293,0.768-0.293,1.061,0s0.293,0.768,0,1.061l-12.652,12.651C634.1-167.641,633.908-167.567,633.716-167.567z"/>
	</g>
</g>
</svg>
