<svg baseProfile="tiny" xmlns="http://www.w3.org/2000/svg" width="54.281" height="54.281" viewBox="606.574 -208.11 54.281 54.281"><g fill="#9B9B9C"><path d="M633.715-153.829c-7.25 0-14.067-2.824-19.195-7.953-10.576-10.584-10.576-27.8 0-38.376 5.128-5.128 11.945-7.953 19.195-7.953 7.251 0 14.065 2.824 19.189 7.953 5.128 5.124 7.952 11.938 7.952 19.185s-2.824 14.063-7.952 19.191c-5.124 5.129-11.938 7.953-19.189 7.953zm0-52.781c-6.85 0-13.29 2.668-18.135 7.513-9.991 9.992-9.991 26.256 0 36.255 4.845 4.845 11.285 7.513 18.135 7.513s13.288-2.668 18.129-7.513c4.845-4.845 7.513-11.283 7.513-18.13 0-6.847-2.668-13.284-7.513-18.124-4.841-4.846-11.28-7.514-18.129-7.514zM646.376-180.219h-25.32c-.414 0-.75-.336-.75-.75s.336-.75.75-.75h25.32c.414 0 .75.336.75.75s-.336.75-.75.75zM646.368-180.228c-.192 0-.384-.073-.53-.22l-12.652-12.651c-.293-.293-.293-.768 0-1.061s.768-.293 1.061 0l12.652 12.651c.293.293.293.768 0 1.061-.147.147-.338.22-.531.22zM633.716-167.567c-.192 0-.384-.073-.53-.22-.293-.293-.293-.768 0-1.061l12.652-12.651c.293-.293.768-.293 1.061 0s.293.768 0 1.061l-12.652 12.651c-.147.146-.339.22-.531.22z"/></g></svg>