<svg baseProfile="tiny" xmlns="http://www.w3.org/2000/svg" width="53.884" height="53.883" viewBox="438.66 -207.913 53.884 53.883"><path fill="#9B9B9C" d="M465.603-154.029c-14.856 0-26.942-12.086-26.942-26.941 0-14.856 12.086-26.942 26.942-26.942 14.855 0 26.941 12.086 26.941 26.942 0 14.855-12.086 26.941-26.941 26.941zm0-52.384c-14.029 0-25.442 11.413-25.442 25.442 0 14.028 11.413 25.441 25.442 25.441 14.028 0 25.441-11.413 25.441-25.441 0-14.029-11.413-25.442-25.441-25.442zm-8.887 35.079c-.192 0-.384-.073-.53-.22-.293-.292-.293-.768 0-1.061l17.764-17.769c.293-.293.768-.293 1.061 0 .293.292.293.768 0 1.061l-17.764 17.769c-.147.147-.339.22-.531.22zm17.763 0c-.192 0-.384-.073-.53-.22l-17.764-17.765c-.293-.293-.293-.768 0-1.061s.768-.293 1.061 0l17.764 17.765c.293.293.293.768 0 1.061-.147.147-.338.22-.531.22z"/></svg>