<?xml version="1.0" encoding="utf-8"?>
<!-- Generator: Adobe Illustrator 16.0.0, SVG Export Plug-In . SVG Version: 6.00 Build 0)  -->
<!DOCTYPE svg PUBLIC "-//W3C//DTD SVG 1.1 Tiny//EN" "http://www.w3.org/Graphics/SVG/1.1/DTD/svg11-tiny.dtd">
<svg version="1.1" baseProfile="tiny" id="Layer_4" xmlns="http://www.w3.org/2000/svg" xmlns:xlink="http://www.w3.org/1999/xlink"
	 x="0px" y="0px" width="82.458px" height="51.5px" viewBox="2081.344 -586.173 82.458 51.5" xml:space="preserve">
<g>
	<rect x="2095.132" y="-572.393" fill="none" width="46.637" height="24.683"/>
	<path fill="none" d="M2162.302-579.998c0-1.648-3.512-4.675-9.25-4.675h-60.956c-5.739,0-9.252,3.027-9.252,4.675v37.765
		c0,3.011,3.178,6.06,9.252,6.06h60.956c6.072,0,9.25-3.048,9.25-6.06V-579.998z M2143.269-546.209h-49.637v-27.683h49.637V-546.209
		z M2151.841-556.913c-1.881,0-3.404-1.524-3.404-3.405c0-1.879,1.523-3.403,3.404-3.403s3.404,1.523,3.404,3.403
		C2155.245-558.438,2153.722-556.913,2151.841-556.913z"/>
	<path d="M2163.802-542.233v-37.765c0-2.579-4.09-6.175-10.75-6.175h-60.956c-6.661,0-10.752,3.597-10.752,6.175v37.765
		c0,3.757,3.693,7.56,10.752,7.56h60.956C2160.109-534.673,2163.802-538.476,2163.802-542.233z M2153.052-536.173h-60.956
		c-6.074,0-9.252-3.048-9.252-6.06v-37.765c0-1.648,3.513-4.675,9.252-4.675h60.956c5.738,0,9.25,3.027,9.25,4.675v37.765
		C2162.302-539.222,2159.124-536.173,2153.052-536.173z"/>
	<path d="M2093.632-546.209h49.637v-27.683h-49.637V-546.209z M2095.132-572.393h46.637v24.683h-46.637V-572.393z"/>
	<circle cx="2151.841" cy="-560.317" r="3.404"/>
</g>
</svg>
