<svg baseProfile="tiny" xmlns="http://www.w3.org/2000/svg" width="51.499" height="51.5" viewBox="-119.433 46.698 51.499 51.5"><path d="M-69.434 81.214v-17.532c0-8.537-6.946-15.483-15.483-15.483h-17.533c-8.537 0-15.482 6.946-15.482 15.483v17.532c0 8.538 6.945 15.484 15.482 15.484h17.533c8.537 0 15.483-6.946 15.483-15.484zm-37.293 9.268v-36.067h26.086v36.067h-26.086zM-105.227 55.915h23.086v33.067h-23.086z" fill="none"/><path d="M-67.934 81.214v-17.532c0-9.365-7.619-16.983-16.983-16.983h-17.533c-9.364 0-16.982 7.618-16.982 16.983v17.532c0 9.365 7.618 16.984 16.982 16.984h17.533c9.364 0 16.983-7.619 16.983-16.984zm-50 0v-17.532c0-8.537 6.945-15.483 15.482-15.483h17.533c8.537 0 15.483 6.946 15.483 15.483v17.532c0 8.538-6.946 15.484-15.483 15.484h-17.533c-8.535 0-15.482-6.946-15.482-15.484zM-80.641 54.415h-26.086v36.067h26.086v-36.067zm-1.5 34.567h-23.086v-33.067h23.086v33.067z"/></svg>