<svg baseProfile="tiny" xmlns="http://www.w3.org/2000/svg" width="300.34" height="63.453" viewBox="0 0 300.34 63.453"><path d="M95.111 15.484c-8.992 0-15.771 7.326-15.771 17.041v.127c0 9.945 6.9 17.166 16.404 17.166 5.317 0 10.176-2.605 13.328-7.15l.312-.449-1.976-1.395-.319.445c-2.133 2.984-6.215 6.174-11.28 6.174-7.771 0-13.41-5.67-13.881-13.857h28.319v-.807c.001-8.33-4.735-17.295-15.136-17.295zm-13.175 15.789c.537-7.93 5.861-13.414 13.112-13.414 7.755 0 12.147 6.654 12.608 13.414h-25.72zm62.664 10.461c-3.428 3.895-7.084 5.709-11.506 5.709-7.875 0-14.285-6.637-14.285-14.791v-.127c0-8.225 6.248-14.666 14.223-14.666 4.354 0 7.975 1.697 11.393 5.342l.377.402 1.76-1.643-.381-.406c-2.832-3.002-6.601-6.07-13.084-6.07-9.256 0-16.785 7.674-16.785 17.104v.127c0 9.43 7.5 17.104 16.722 17.104 5.267 0 9.635-2.117 13.356-6.473l.344-.4-1.754-1.639-.38.427zm23.313-26.25c-9.715 0-17.04 7.381-17.04 17.168v.127c0 9.713 7.325 17.039 17.04 17.039 9.714 0 17.039-7.381 17.039-17.166v-.127c0-9.715-7.325-17.041-17.039-17.041zm14.538 17.23c0 8.396-6.225 14.73-14.475 14.73-8.188 0-14.604-6.471-14.604-14.73v-.125c0-8.396 6.223-14.729 14.477-14.729 8.188 0 14.602 6.469 14.602 14.729v.125zm27.44-17.23c-6.174 0-11.442 3.186-14.096 8.316v-22.138h-2.438v47.395h2.438v-7.557c2.652 5.133 7.921 8.316 14.096 8.316 9.353 0 16.405-7.354 16.405-17.104v-.125c0-9.75-7.054-17.103-16.405-17.103zm13.904 17.295c0 8.496-5.874 14.664-13.968 14.664-7.903 0-14.095-6.469-14.095-14.729v-.127c0-8.26 6.189-14.729 14.095-14.729 8.095 0 13.968 6.221 13.968 14.793v.128zm24.648-17.295c-8.992 0-15.771 7.326-15.771 17.041v.127c0 9.945 6.9 17.166 16.404 17.166 5.317 0 10.176-2.605 13.328-7.15l.312-.449-1.976-1.395-.319.445c-2.133 2.984-6.215 6.174-11.28 6.174-7.646 0-13.404-5.795-13.881-13.857h28.319v-.807c.001-8.33-4.735-17.295-15.136-17.295zm-13.175 15.789c.537-7.93 5.861-13.414 13.112-13.414 7.755 0 12.146 6.654 12.606 13.414h-25.718zm65.281 1.506c0-8.596-5.199-17.295-15.137-17.295-8.992 0-15.771 7.326-15.771 17.041v.127c0 9.945 6.898 17.166 16.404 17.166 5.317 0 10.176-2.605 13.328-7.15l.312-.449-1.976-1.395-.318.445c-2.133 2.984-6.216 6.174-11.282 6.174-7.646 0-13.403-5.795-13.879-13.857h28.319v-.807zm-28.315-1.506c.537-7.93 5.861-13.414 13.112-13.414 7.755 0 12.147 6.654 12.606 13.414h-25.718zm-234.218-12.242c.67-.984.414-2.326-.57-2.996-.98-.668-2.324-.416-2.993.568-.671.984-.415 2.324.567 2.992.984.672 2.324.422 2.996-.564zm-4.629 4.91s-.479-5.07-10.903-3.555c-9.479 1.383-8.733 5.645-8.733 5.645-.321.473 2.433 5.182 11.405 3.48 8.964-1.699 8.231-5.57 8.231-5.57zm.552 7.83l-1.338-.885-.014-.008-.016-.01-1.312-.924s-2.369 1.254-4.39 1.543c0 0 .848 1.43 3.22 2.998l.013.008.017.01.011.01.014.008c2.325 1.631 3.966 1.896 3.966 1.896-.465-1.982-.171-4.646-.171-4.646z"/><circle cx="43.41" cy="22.706" r="2.155"/><path d="M31.936-.04c-17.521 0-31.727 14.205-31.727 31.729 0 17.52 14.204 31.725 31.727 31.725 17.521 0 31.727-14.203 31.727-31.725-.002-17.523-14.207-31.729-31.727-31.729zm-5.864 46.643c-2.873 2.074-4.808 1.211-4.959 1.137l-.004.006-.004-.01-.008.002.004-.006c-.131-.117-1.644-1.604-.762-5.031 0 0 .064-.402.316-.006 0 0 .554 1.436 2.154 2.525l-.809 1.201.817-1.195c1.601 1.09 3.142 1.08 3.142 1.08.461.088.113.297.113.297zm6.778-3.475c-.978 1.436-1.633 2.008-3.953 2.332-2.244.309-4.959-1.475-5.144-1.596l-.005-.004-.006-.004c-.182-.129-2.84-2.004-3.368-4.203-.55-2.277-.259-3.1.718-4.533 0 0 .086-.146.168.084 0 0 1.039 2.998 4.658 5.469 3.622 2.463 6.79 2.332 6.79 2.332.249-.007.142.123.142.123zm14.416 3.801c-1.053 1.549-3.719 3.234-7.021.986-3.296-2.248-4.821-6.686-4.821-6.686-.041-.133-.146-.115-.146-.115-4.18.42-7.773-2.221-8.021-2.406-.264-.162-4.033-2.541-5.181-6.586 0 0-.021-.102-.16-.092 0 0-4.688.205-7.983-2.041-3.299-2.248-2.709-5.35-1.655-6.896 1.054-1.549 2.954-3.326 7.761-4.58 4.807-1.262 9.451-.24 10.883.301 0 0 .064.078.225-.066.161-.148.646-.533.646-.533s.061-.018.051-.143c-.002-.121-.224-1.359.728-2.756.948-1.393 3.425-3.027 6.67-.816l.161-.012c.137-.027 2.533-.412 3.968.561l.003-.002.005.008h.006l-.002.002c1.429.979 1.948 3.35 1.974 3.486l.045.15c3.25 2.215 2.631 5.113 1.681 6.508-.949 1.395-2.181 1.645-2.297 1.686-.117.037-.112.1-.112.1s-.182.592-.258.799c-.08.197.021.232.021.232 1.028 1.135 3.674 5.08 4.267 10.018.578 4.928-.384 7.346-1.438 8.893zm-8.514-19.332s-3.871.732-2.169 9.701c1.701 8.971 7.09 9.811 7.412 9.336 0 0 4.24-.863 2.058-10.191-2.405-10.256-7.301-8.846-7.301-8.846z"/></svg>