<?xml version="1.0" encoding="utf-8"?>
<!-- Generator: Adobe Illustrator 16.0.0, SVG Export Plug-In . SVG Version: 6.00 Build 0)  -->
<!DOCTYPE svg PUBLIC "-//W3C//DTD SVG 1.1 Tiny//EN" "http://www.w3.org/Graphics/SVG/1.1/DTD/svg11-tiny.dtd">
<svg version="1.1" baseProfile="tiny" id="Layer_1" xmlns="http://www.w3.org/2000/svg" xmlns:xlink="http://www.w3.org/1999/xlink"
	 x="0px" y="0px" width="137.26px" height="137.258px" viewBox="0 0 137.26 137.258" xml:space="preserve">
<g>
	<path d="M90.854,52.594c2.125,1.447,5.031,0.908,6.483-1.225c1.453-2.129,0.89-5.033-1.233-6.48
		c-2.129-1.449-5.029-0.9-6.478,1.229C88.173,48.249,88.729,51.143,90.854,52.594z"/>
	<path d="M68.656-0.458c-37.903,0-68.631,30.729-68.631,68.631s30.728,68.627,68.631,68.627c37.901,0,68.629-30.725,68.629-68.627
		S106.559-0.458,68.656-0.458z M55.977,100.44c-6.217,4.486-10.398,2.617-10.729,2.457l-0.008,0.014c0,0-0.008-0.008-0.006-0.021
		c-0.019,0.006-0.019,0.006-0.019,0.006l0.008-0.014c-0.285-0.256-3.555-3.467-1.646-10.885c0,0,0.142-0.871,0.683-0.014
		c0,0,1.199,3.105,4.664,5.465l-1.754,2.6l1.77-2.588c3.461,2.357,6.794,2.338,6.794,2.338
		C56.727,99.987,55.977,100.44,55.977,100.44z M70.634,92.922c-2.112,3.104-3.53,4.34-8.551,5.043
		c-4.854,0.67-10.726-3.188-11.125-3.451l-0.015-0.01c-0.008-0.006-0.011-0.006-0.011-0.006c-0.394-0.279-6.142-4.334-7.286-9.094
		c-1.188-4.93-0.559-6.703,1.555-9.805c0,0,0.187-0.32,0.363,0.182c0,0,2.245,6.486,10.077,11.83
		c7.835,5.33,14.687,5.043,14.687,5.043C70.868,92.637,70.634,92.922,70.634,92.922z M101.82,101.143
		c-2.276,3.35-8.045,6.996-15.188,2.133C79.5,98.417,76.199,88.821,76.199,88.821c-0.092-0.291-0.316-0.252-0.316-0.252
		c-9.041,0.904-16.816-4.805-17.352-5.207c-0.57-0.352-8.726-5.494-11.207-14.244c0,0-0.041-0.223-0.346-0.201
		c0,0-10.141,0.443-17.273-4.416s-5.857-11.568-3.578-14.916c2.278-3.35,6.389-7.193,16.787-9.908
		c10.396-2.727,20.441-0.52,23.541,0.652c0,0,0.141,0.17,0.482-0.146c0.35-0.32,1.396-1.154,1.396-1.154s0.129-0.037,0.11-0.307
		c-0.005-0.262-0.481-2.941,1.573-5.959c2.053-3.014,7.406-6.551,14.428-1.77c0,0,0.045,0.031,0.349-0.025
		c0.296-0.059,5.479-0.889,8.584,1.219l0.006-0.006c0,0-0.002,0.006,0.013,0.016c0,0,0-0.006,0.014,0l-0.006,0.006
		c3.088,2.113,4.215,7.24,4.27,7.539c0.056,0.299,0.097,0.33,0.097,0.33c7.03,4.789,5.69,11.061,3.636,14.074
		c-2.054,3.016-4.715,3.559-4.97,3.645c-0.254,0.082-0.243,0.215-0.243,0.215s-0.393,1.281-0.559,1.727
		c-0.174,0.43,0.043,0.506,0.043,0.506c2.226,2.455,7.947,10.986,9.229,21.668C106.182,92.567,104.104,97.797,101.82,101.143z"/>
	<path d="M71.796,51.418c0,0-1.037-10.969-23.586-7.688c-20.51,2.99-18.896,12.207-18.896,12.207
		c-0.695,1.021,5.263,11.205,24.674,7.529C73.384,59.79,71.796,51.418,71.796,51.418z"/>
	<path d="M83.402,59.325c0,0-8.373,1.586-4.69,20.986c3.681,19.404,15.335,21.219,16.034,20.193c0,0,9.171-1.869,4.447-22.047
		C93.995,56.278,83.402,59.325,83.402,59.325z"/>
	<path d="M72.993,68.354l-2.896-1.91l-0.025-0.018l-0.032-0.021l-2.84-1.998c0,0-5.125,2.709-9.496,3.336
		c0,0,1.834,3.094,6.965,6.484l0.026,0.02c0.011,0.01,0.023,0.012,0.035,0.021c0.004,0.002,0.013,0.01,0.024,0.02l0.024,0.02
		c5.03,3.525,8.58,4.102,8.58,4.102C72.354,74.116,72.993,68.354,72.993,68.354z"/>
	<path d="M81.811,40.792c1.449-2.127,0.896-5.027-1.234-6.479c-2.123-1.445-5.027-0.896-6.477,1.23
		c-1.451,2.133-0.896,5.027,1.229,6.473C77.456,43.467,80.355,42.926,81.811,40.792z"/>
</g>
</svg>
