<?xml version="1.0" encoding="utf-8"?>
<!-- Generator: Adobe Illustrator 16.0.0, SVG Export Plug-In . SVG Version: 6.00 Build 0)  -->
<!DOCTYPE svg PUBLIC "-//W3C//DTD SVG 1.1 Tiny//EN" "http://www.w3.org/Graphics/SVG/1.1/DTD/svg11-tiny.dtd">
<svg version="1.1" baseProfile="tiny" id="Layer_1" xmlns="http://www.w3.org/2000/svg" xmlns:xlink="http://www.w3.org/1999/xlink"
	 x="0px" y="0px" width="300.34px" height="63.453px" viewBox="0 0 300.34 63.453" xml:space="preserve">
<g>
	<path d="M95.111,15.484c-8.992,0-15.771,7.326-15.771,17.041v0.127c0,9.945,6.9,17.166,16.404,17.166
		c5.317,0,10.176-2.605,13.328-7.15l0.312-0.449l-1.976-1.395l-0.319,0.445c-2.133,2.984-6.215,6.174-11.28,6.174
		c-7.771,0-13.41-5.67-13.881-13.857h28.319v-0.807C110.248,24.449,105.512,15.484,95.111,15.484z M81.936,31.273
		c0.537-7.93,5.861-13.414,13.112-13.414c7.755,0,12.147,6.654,12.608,13.414H81.936z"/>
	<path d="M144.6,41.734c-3.428,3.895-7.084,5.709-11.506,5.709c-7.875,0-14.285-6.637-14.285-14.791v-0.127
		c0-8.225,6.248-14.666,14.223-14.666c4.354,0,7.975,1.697,11.393,5.342l0.377,0.402l1.76-1.643l-0.381-0.406
		c-2.832-3.002-6.601-6.07-13.084-6.07c-9.256,0-16.785,7.674-16.785,17.104v0.127c0,9.43,7.5,17.104,16.722,17.104
		c5.267,0,9.635-2.117,13.356-6.473l0.344-0.4l-1.754-1.639L144.6,41.734z"/>
	<path d="M167.913,15.484c-9.715,0-17.04,7.381-17.04,17.168v0.127c0,9.713,7.325,17.039,17.04,17.039
		c9.714,0,17.039-7.381,17.039-17.166v-0.127C184.952,22.81,177.627,15.484,167.913,15.484z M182.451,32.714
		c0,8.396-6.225,14.73-14.475,14.73c-8.188,0-14.604-6.471-14.604-14.73v-0.125c0-8.396,6.223-14.729,14.477-14.729
		c8.188,0,14.602,6.469,14.602,14.729V32.714z"/>
	<path d="M209.891,15.484c-6.174,0-11.442,3.186-14.096,8.316V1.662h-2.438v47.395h2.438V41.5c2.652,5.133,7.921,8.316,14.096,8.316
		c9.353,0,16.405-7.354,16.405-17.104v-0.125C226.296,22.837,219.242,15.484,209.891,15.484z M223.795,32.779
		c0,8.496-5.874,14.664-13.968,14.664c-7.903,0-14.095-6.469-14.095-14.729v-0.127c0-8.26,6.189-14.729,14.095-14.729
		c8.095,0,13.968,6.221,13.968,14.793V32.779z"/>
	<path d="M248.443,15.484c-8.992,0-15.771,7.326-15.771,17.041v0.127c0,9.945,6.9,17.166,16.404,17.166
		c5.317,0,10.176-2.605,13.328-7.15l0.312-0.449l-1.976-1.395l-0.319,0.445c-2.133,2.984-6.215,6.174-11.28,6.174
		c-7.646,0-13.404-5.795-13.881-13.857h28.319v-0.807C263.58,24.449,258.844,15.484,248.443,15.484z M235.268,31.273
		c0.537-7.93,5.861-13.414,13.112-13.414c7.755,0,12.146,6.654,12.606,13.414H235.268z"/>
	<path d="M300.549,32.779c0-8.596-5.199-17.295-15.137-17.295c-8.992,0-15.771,7.326-15.771,17.041v0.127
		c0,9.945,6.898,17.166,16.404,17.166c5.317,0,10.176-2.605,13.328-7.15l0.312-0.449l-1.976-1.395l-0.318,0.445
		c-2.133,2.984-6.216,6.174-11.282,6.174c-7.646,0-13.403-5.795-13.879-13.857h28.319V32.779L300.549,32.779z M272.234,31.273
		c0.537-7.93,5.861-13.414,13.112-13.414c7.755,0,12.147,6.654,12.606,13.414H272.234z"/>
	<path d="M38.016,19.031c0.67-0.984,0.414-2.326-0.57-2.996c-0.98-0.668-2.324-0.416-2.993,0.568
		c-0.671,0.984-0.415,2.324,0.567,2.992C36.004,20.267,37.344,20.017,38.016,19.031z"/>
	<path d="M33.387,23.941c0,0-0.479-5.07-10.903-3.555c-9.479,1.383-8.733,5.645-8.733,5.645c-0.321,0.473,2.433,5.182,11.405,3.48
		C34.12,27.812,33.387,23.941,33.387,23.941z"/>
	<path d="M33.939,31.771l-1.338-0.885l-0.014-0.008l-0.016-0.01l-1.312-0.924c0,0-2.369,1.254-4.39,1.543c0,0,0.848,1.43,3.22,2.998
		l0.013,0.008c0.004,0.004,0.012,0.006,0.017,0.01c0.002,0.002,0.006,0.006,0.011,0.01l0.014,0.008
		c2.325,1.631,3.966,1.896,3.966,1.896C33.645,34.435,33.939,31.771,33.939,31.771z"/>
	<circle cx="43.41" cy="22.706" r="2.155"/>
	<path d="M31.936-0.04c-17.521,0-31.727,14.205-31.727,31.729c0,17.52,14.204,31.725,31.727,31.725
		c17.521,0,31.727-14.203,31.727-31.725C63.661,14.166,49.456-0.04,31.936-0.04z M26.072,46.603
		c-2.873,2.074-4.808,1.211-4.959,1.137l-0.004,0.006c0,0-0.004-0.004-0.004-0.01c-0.008,0.002-0.008,0.002-0.008,0.002l0.004-0.006
		c-0.131-0.117-1.644-1.604-0.762-5.031c0,0,0.064-0.402,0.316-0.006c0,0,0.554,1.436,2.154,2.525L22,46.421l0.817-1.195
		c1.601,1.09,3.142,1.08,3.142,1.08C26.42,46.394,26.072,46.603,26.072,46.603z M32.85,43.128c-0.978,1.436-1.633,2.008-3.953,2.332
		c-2.244,0.309-4.959-1.475-5.144-1.596l-0.005-0.004c-0.005-0.004-0.006-0.004-0.006-0.004c-0.182-0.129-2.84-2.004-3.368-4.203
		c-0.55-2.277-0.259-3.1,0.718-4.533c0,0,0.086-0.146,0.168,0.084c0,0,1.039,2.998,4.658,5.469c3.622,2.463,6.79,2.332,6.79,2.332
		C32.957,42.998,32.85,43.128,32.85,43.128z M47.266,46.929c-1.053,1.549-3.719,3.234-7.021,0.986
		c-3.296-2.248-4.821-6.686-4.821-6.686c-0.041-0.133-0.146-0.115-0.146-0.115c-4.18,0.42-7.773-2.221-8.021-2.406
		c-0.264-0.162-4.033-2.541-5.181-6.586c0,0-0.021-0.102-0.16-0.092c0,0-4.688,0.205-7.983-2.041
		c-3.299-2.248-2.709-5.35-1.655-6.896c1.054-1.549,2.954-3.326,7.761-4.58c4.807-1.262,9.451-0.24,10.883,0.301
		c0,0,0.064,0.078,0.225-0.066c0.161-0.148,0.646-0.533,0.646-0.533s0.061-0.018,0.051-0.143c-0.002-0.121-0.224-1.359,0.728-2.756
		c0.948-1.393,3.425-3.027,6.67-0.816c0,0,0.021,0.014,0.161-0.012c0.137-0.027,2.533-0.412,3.968,0.561l0.003-0.002
		c0,0-0.002,0.004,0.005,0.008c0,0,0.001-0.002,0.006,0l-0.002,0.002c1.429,0.979,1.948,3.35,1.974,3.486
		c0.025,0.139,0.045,0.15,0.045,0.15c3.25,2.215,2.631,5.113,1.681,6.508c-0.949,1.395-2.181,1.645-2.297,1.686
		c-0.117,0.037-0.112,0.1-0.112,0.1s-0.182,0.592-0.258,0.799c-0.08,0.197,0.021,0.232,0.021,0.232
		c1.028,1.135,3.674,5.08,4.267,10.018C49.282,42.964,48.32,45.382,47.266,46.929z"/>
	<path d="M38.752,27.597c0,0-3.871,0.732-2.169,9.701c1.701,8.971,7.09,9.811,7.412,9.336c0,0,4.24-0.863,2.058-10.191
		C43.648,26.187,38.752,27.597,38.752,27.597z"/>
</g>
</svg>
