<svg baseProfile="tiny" xmlns="http://www.w3.org/2000/svg" width="137.26" height="137.258" viewBox="0 0 137.26 137.258"><path d="M90.854 52.594c2.125 1.447 5.031.908 6.483-1.225 1.453-2.129.89-5.033-1.233-6.48-2.129-1.449-5.029-.9-6.478 1.229-1.453 2.131-.897 5.025 1.228 6.476zM68.656-.458c-37.903 0-68.631 30.729-68.631 68.631s30.728 68.627 68.631 68.627c37.901 0 68.629-30.725 68.629-68.627s-30.726-68.631-68.629-68.631zm-12.679 100.898c-6.217 4.486-10.398 2.617-10.729 2.457l-.008.014-.006-.021-.019.006.008-.014c-.285-.256-3.555-3.467-1.646-10.885 0 0 .142-.871.683-.014 0 0 1.199 3.105 4.664 5.465l-1.754 2.6 1.77-2.588c3.461 2.357 6.794 2.338 6.794 2.338.993.189.243.642.243.642zm14.657-7.518c-2.112 3.104-3.53 4.34-8.551 5.043-4.854.67-10.726-3.188-11.125-3.451l-.015-.01-.011-.006c-.394-.279-6.142-4.334-7.286-9.094-1.188-4.93-.559-6.703 1.555-9.805 0 0 .187-.32.363.182 0 0 2.245 6.486 10.077 11.83 7.835 5.33 14.687 5.043 14.687 5.043.54-.017.306.268.306.268zm31.186 8.221c-2.276 3.35-8.045 6.996-15.188 2.133-7.132-4.859-10.433-14.455-10.433-14.455-.092-.291-.316-.252-.316-.252-9.041.904-16.816-4.805-17.352-5.207-.57-.352-8.726-5.494-11.207-14.244 0 0-.041-.223-.346-.201 0 0-10.141.443-17.273-4.416s-5.857-11.568-3.578-14.916c2.278-3.35 6.389-7.193 16.787-9.908 10.396-2.727 20.441-.52 23.541.652 0 0 .141.17.482-.146.35-.32 1.396-1.154 1.396-1.154s.129-.037.11-.307c-.005-.262-.481-2.941 1.573-5.959 2.053-3.014 7.406-6.551 14.428-1.77 0 0 .045.031.349-.025.296-.059 5.479-.889 8.584 1.219l.006-.006.013.016h.014l-.006.006c3.088 2.113 4.215 7.24 4.27 7.539.056.299.097.33.097.33 7.03 4.789 5.69 11.061 3.636 14.074-2.054 3.016-4.715 3.559-4.97 3.645-.254.082-.243.215-.243.215s-.393 1.281-.559 1.727c-.174.43.043.506.043.506 2.226 2.455 7.947 10.986 9.229 21.668 1.275 10.66-.803 15.89-3.087 19.236zM71.796 51.418s-1.037-10.969-23.586-7.688c-20.51 2.99-18.896 12.207-18.896 12.207-.695 1.021 5.263 11.205 24.674 7.529 19.396-3.676 17.808-12.048 17.808-12.048zM83.402 59.325s-8.373 1.586-4.69 20.986c3.681 19.404 15.335 21.219 16.034 20.193 0 0 9.171-1.869 4.447-22.047-5.198-22.179-15.791-19.132-15.791-19.132zM72.993 68.354l-2.896-1.91-.025-.018-.032-.021-2.84-1.998s-5.125 2.709-9.496 3.336c0 0 1.834 3.094 6.965 6.484l.026.02.035.021.024.02.024.02c5.03 3.525 8.58 4.102 8.58 4.102-1.004-4.294-.365-10.056-.365-10.056zM81.811 40.792c1.449-2.127.896-5.027-1.234-6.479-2.123-1.445-5.027-.896-6.477 1.23-1.451 2.133-.896 5.027 1.229 6.473 2.127 1.451 5.026.91 6.482-1.224z"/></svg>