<?xml version="1.0" encoding="utf-8"?>
<!-- Generator: Adobe Illustrator 16.0.0, SVG Export Plug-In . SVG Version: 6.00 Build 0)  -->
<!DOCTYPE svg PUBLIC "-//W3C//DTD SVG 1.1 Tiny//EN" "http://www.w3.org/Graphics/SVG/1.1/DTD/svg11-tiny.dtd">
<svg version="1.1" baseProfile="tiny" id="Layer_4" xmlns="http://www.w3.org/2000/svg" xmlns:xlink="http://www.w3.org/1999/xlink"
	 x="0px" y="0px" width="66.519px" height="53px" viewBox="811.839 -364.284 66.519 53" xml:space="preserve">
<g>
	<path fill="none" d="M869.469-346.209l-4.539,0.028l-2.969,0.018c-1.144,0-2.07,0.928-2.07,2.069v1.1h16.967v-1.18
		c0-1.139-0.927-2.066-2.066-2.068l-5.32,0.033C869.47-346.209,869.47-346.209,869.469-346.209z"/>
	<polygon fill="none" points="876.857,-341.495 859.891,-341.495 859.891,-323.863 859.891,-320.438 876.857,-320.438 	"/>
	<path fill="none" d="M817.878-324.613h40.513v-19.481c0-1.968,1.6-3.569,3.565-3.569l2.219-0.014v-10.859h-46.297V-324.613z
		 M826.709-347.061l9.348-5.948c0.348-0.223,0.813-0.119,1.035,0.23c0.223,0.35,0.119,0.813-0.23,1.036l-9.348,5.948
		c-0.124,0.08-0.264,0.117-0.401,0.117c-0.248,0-0.491-0.123-0.634-0.347C826.256-346.375,826.359-346.838,826.709-347.061z
		 M825.567-339.417l20.165-12.831c0.351-0.222,0.813-0.12,1.035,0.23c0.223,0.35,0.119,0.813-0.23,1.036l-20.165,12.831
		c-0.125,0.08-0.264,0.117-0.401,0.117c-0.248,0-0.491-0.123-0.634-0.347C825.114-338.73,825.218-339.194,825.567-339.417z"/>
	<path fill="none" d="M817.128-323.113c-0.414,0-0.75-0.336-0.75-0.75v-35.422c0-0.414,0.336-0.75,0.75-0.75h47.797
		c0.414,0,0.75,0.336,0.75,0.75v11.6l3.039-0.019v-13.012c0-1.138-0.927-2.065-2.066-2.067l-51.242,0.08
		c-1.14,0-2.066,0.928-2.066,2.068v38.203c0,1.141,0.927,2.069,2.065,2.069l42.986-0.068v-2.681H817.128z"/>
	<path fill="none" d="M859.891-318.938v4.084c0,1.14,0.925,2.067,2.062,2.069l12.831-0.08c1.146,0,2.073-0.927,2.073-2.066v-4.007
		H859.891z M868.373-313.808c-1.163,0-2.109-0.947-2.109-2.11s0.946-2.11,2.109-2.11c1.164,0,2.111,0.946,2.111,2.11
		S869.537-313.808,868.373-313.808z"/>
	<circle fill="none" cx="868.373" cy="-315.918" r="0.61"/>
	<path fill="#1A1A1A" d="M874.787-347.742l-4.573,0.028v-13.003c0-1.964-1.599-3.564-3.566-3.567l-51.243,0.08
		c-1.966,0-3.565,1.601-3.565,3.568v38.203c0,1.968,1.6,3.569,3.566,3.569l42.985-0.068v4.079c0,1.968,1.6,3.569,3.565,3.569
		c0.002,0,0.003,0,0.005,0l12.828-0.08c1.968,0,3.568-1.6,3.568-3.566v-29.244C878.357-346.139,876.759-347.739,874.787-347.742z
		 M864.175-347.677l-2.219,0.014c-1.966,0-3.565,1.601-3.565,3.569v19.481h-40.513v-33.922h46.297V-347.677z M859.891-323.863
		v-17.631h16.967v21.057h-16.967V-323.863z M874.791-346.242c1.14,0.002,2.066,0.929,2.066,2.068v1.18h-16.967v-1.1
		c0-1.141,0.927-2.069,2.07-2.069l2.969-0.018l4.539-0.028c0.001,0,0.001,0,0.002,0L874.791-346.242z M815.404-320.364
		c-1.139,0-2.065-0.928-2.065-2.069v-38.203c0-1.14,0.927-2.068,2.066-2.068l51.242-0.08c1.14,0.002,2.066,0.929,2.066,2.067v13.012
		l-3.039,0.019v-11.6c0-0.414-0.336-0.75-0.75-0.75h-47.797c-0.414,0-0.75,0.336-0.75,0.75v35.422c0,0.414,0.336,0.75,0.75,0.75
		h41.263v2.681L815.404-320.364z M874.784-312.864l-12.831,0.08c-1.138-0.001-2.062-0.929-2.062-2.069v-4.084h16.967v4.007
		C876.857-313.791,875.93-312.864,874.784-312.864z"/>
	<path fill="#1A1A1A" d="M868.373-318.028c-1.163,0-2.109,0.946-2.109,2.11s0.946,2.11,2.109,2.11c1.164,0,2.111-0.947,2.111-2.11
		S869.537-318.028,868.373-318.028z M868.373-315.308c-0.336,0-0.609-0.274-0.609-0.61s0.273-0.61,0.609-0.61
		c0.337,0,0.611,0.273,0.611,0.61S868.71-315.308,868.373-315.308z"/>
	<path fill="#1A1A1A" d="M827.112-345.678c0.138,0,0.277-0.038,0.401-0.117l9.348-5.948c0.35-0.223,0.453-0.686,0.23-1.036
		c-0.222-0.349-0.688-0.453-1.035-0.23l-9.348,5.948c-0.35,0.223-0.453,0.686-0.23,1.036
		C826.621-345.8,826.864-345.678,827.112-345.678z"/>
	<path fill="#1A1A1A" d="M825.971-338.034c0.138,0,0.276-0.038,0.401-0.117l20.165-12.831c0.35-0.223,0.453-0.686,0.23-1.036
		c-0.222-0.35-0.685-0.452-1.035-0.23l-20.165,12.831c-0.35,0.223-0.453,0.686-0.23,1.036
		C825.479-338.156,825.723-338.034,825.971-338.034z"/>
</g>
</svg>
