<svg baseProfile="tiny" xmlns="http://www.w3.org/2000/svg" width="28.64" height="28.641" viewBox="1956.283 554.211 28.64 28.641"><path fill="#7A9C49" d="M1968.373 573.25l-.037-.001c-.16-.012-.306-.101-.39-.238l-2.577-4.219c-.144-.235-.069-.544.166-.688.234-.146.542-.07.688.166l2.213 3.623 6.59-7.899c.178-.212.493-.239.704-.063.212.177.24.492.063.704l-7.036 8.436c-.095.114-.236.179-.384.179zM1970.603 582.852c-7.896 0-14.319-6.424-14.319-14.32s6.424-14.32 14.319-14.32c7.896 0 14.32 6.424 14.32 14.32s-6.424 14.32-14.32 14.32zm0-27.641c-7.345 0-13.319 5.976-13.319 13.32s5.975 13.32 13.319 13.32 13.32-5.976 13.32-13.32-5.976-13.32-13.32-13.32z"/></svg>