<svg baseProfile="tiny" xmlns="http://www.w3.org/2000/svg" width="24.959" height="20.888" viewBox="1643.365 704.863 24.959 20.888"><g fill="#7A994A"><path d="M1667.824 710.826c-.128 0-.256-.049-.354-.146-3.106-3.105-7.234-4.816-11.626-4.816s-8.52 1.711-11.626 4.816c-.195.195-.512.195-.707 0s-.195-.512 0-.707c3.295-3.295 7.675-5.109 12.333-5.109s9.038 1.814 12.333 5.109c.195.195.195.512 0 .707-.097.097-.225.146-.353.146zM1647.236 715.414c-.128 0-.256-.049-.354-.146-.195-.195-.195-.512 0-.707 2.395-2.395 5.577-3.713 8.962-3.713 3.388 0 6.569 1.317 8.958 3.709.195.195.195.512 0 .707s-.512.195-.707 0c-2.2-2.203-5.13-3.416-8.251-3.416-3.118 0-6.05 1.215-8.255 3.42-.097.097-.225.146-.353.146zM1661.043 720.037c-.128 0-.257-.049-.354-.146-1.29-1.295-3.011-2.008-4.844-2.008-1.829 0-3.55.713-4.845 2.008-.195.195-.512.195-.707 0s-.195-.512 0-.707c1.483-1.483 3.455-2.301 5.552-2.301 2.101 0 4.072.817 5.553 2.301.194.196.194.513-.001.708-.098.096-.226.145-.354.145zM1655.849 725.751c-1.093 0-1.981-.889-1.981-1.981s.889-1.982 1.981-1.982 1.981.89 1.981 1.982-.889 1.981-1.981 1.981zm0-2.964c-.541 0-.981.44-.981.982 0 .541.44.981.981.981s.981-.44.981-.981c0-.541-.44-.982-.981-.982z"/></g></svg>