<?xml version="1.0" encoding="utf-8"?>
<!-- Generator: Adobe Illustrator 16.0.0, SVG Export Plug-In . SVG Version: 6.00 Build 0)  -->
<!DOCTYPE svg PUBLIC "-//W3C//DTD SVG 1.1 Tiny//EN" "http://www.w3.org/Graphics/SVG/1.1/DTD/svg11-tiny.dtd">
<svg version="1.1" baseProfile="tiny" id="Layer_4" xmlns="http://www.w3.org/2000/svg" xmlns:xlink="http://www.w3.org/1999/xlink"
	 x="0px" y="0px" width="27.552px" height="26.611px" viewBox="1749.302 703.062 27.552 26.611" xml:space="preserve">
<g>
	<path fill="none" d="M1759.325,719.546c0,2.062,1.677,3.738,3.738,3.738s3.739-1.677,3.739-3.738c0-0.788-0.248-1.518-0.666-2.121
		l-2.709,2.489c-0.095,0.087-0.216,0.132-0.338,0.132c-0.004,0-0.008-0.004-0.013-0.004s-0.009,0.004-0.013,0.004
		c-0.122,0-0.243-0.045-0.338-0.132l-2.794-2.567C1759.57,717.877,1759.325,718.586,1759.325,719.546z"/>
	<path fill="none" d="M1764.189,716c-0.357-0.114-0.731-0.192-1.126-0.192c-0.053,0-0.522,0.01-1.108,0.171l1.122,2.41L1764.189,716
		z"/>
	<path fill="none" d="M1751.141,707.396c-1.285,0.94-0.8,2.008-0.396,2.561c0.837,1.146,2.589,1.863,3.844,1.312
		c-0.973-1.829-1.94-3.74-2.395-4.644L1751.141,707.396z"/>
	<path fill="none" d="M1761.908,714.951c0.42-0.099,0.819-0.144,1.155-0.144c0.409,0,0.801,0.068,1.181,0.167
		c0.067-0.73,0.355-1.636,1.118-2.679c0.218-0.299,0.59-0.729,1.048-1.232c-1.037-0.411-2.164-0.645-3.347-0.645
		c-0.148,0-1.626,0.026-3.347,0.613c0.472,0.518,0.852,0.959,1.075,1.264C1761.547,713.328,1761.836,714.225,1761.908,714.951z"/>
	<path fill="none" d="M1757.741,708.958c0.476-0.532,0.704-1.306,0.604-2.217c-0.126-1.164-0.752-2.216-1.523-2.556
		c-0.531-0.233-1.112-0.129-1.723,0.316l-1.053,0.771C1754.77,705.978,1756.294,707.478,1757.741,708.958z"/>
	<path fill="none" d="M1775.014,707.396l-1.054-0.771c-0.454,0.903-1.422,2.814-2.395,4.644c1.254,0.551,3.007-0.166,3.844-1.312
		C1775.813,709.404,1776.299,708.337,1775.014,707.396z"/>
	<path fill="none" d="M1769.312,715.183c-0.767,1.049-1.548,1.599-2.228,1.884c0.447,0.724,0.719,1.568,0.719,2.479
		c0,2.612-2.126,4.738-4.739,4.738c-2.612,0-4.738-2.126-4.738-4.738c0-1.047,0.247-1.873,0.632-2.528
		c-0.652-0.299-1.391-0.844-2.114-1.835c-0.245-0.334-0.591-0.905-0.983-1.594c-1.121,1.34-1.922,3.237-1.922,5.955
		c0,5.034,4.094,9.129,9.126,9.129s9.127-4.095,9.127-9.129c0-2.166-0.763-4.155-2.028-5.723
		C1769.824,714.406,1769.528,714.887,1769.312,715.183z"/>
	<path fill="#7A9C49" d="M1775.604,706.59l-1.527-1.117c-0.001-0.001-0.002-0.002-0.003-0.003l-0.898-0.655l-1.53-1.119
		c-1.145-0.838-2.109-0.693-2.717-0.425c-1.099,0.485-1.948,1.837-2.113,3.363c-0.134,1.231,0.19,2.311,0.89,3.055
		c-0.194,0.202-0.384,0.399-0.566,0.593c-1.248-0.551-2.624-0.862-4.074-0.862c-0.044,0-1.929,0.023-4.062,0.848
		c-0.178-0.188-0.361-0.381-0.552-0.578c0.699-0.744,1.023-1.823,0.89-3.055c-0.165-1.526-1.015-2.878-2.113-3.363
		c-0.61-0.269-1.573-0.413-2.717,0.425l-1.53,1.119l-0.898,0.655c-0.001,0.001-0.002,0.002-0.003,0.003l-1.527,1.117
		c-1.409,1.03-1.645,2.546-0.613,3.957c0.827,1.132,2.312,1.92,3.724,1.92c0.488,0,0.966-0.098,1.406-0.305
		c0.095,0.175,0.188,0.345,0.28,0.514c-1.391,1.496-2.41,3.679-2.41,6.868c0,5.585,4.543,10.129,10.126,10.129
		c5.584,0,10.127-4.544,10.127-10.129c0-2.544-0.95-4.866-2.507-6.646c0.132-0.238,0.267-0.483,0.403-0.735
		c0.44,0.207,0.918,0.305,1.406,0.305c1.411,0,2.897-0.789,3.724-1.92C1777.248,709.136,1777.013,707.62,1775.604,706.59z
		 M1767.809,706.741c0.126-1.164,0.752-2.216,1.523-2.556c0.533-0.233,1.113-0.129,1.723,0.316l1.053,0.771
		c-0.723,0.705-2.247,2.205-3.694,3.686C1767.938,708.426,1767.709,707.652,1767.809,706.741z M1763.063,710.419
		c1.183,0,2.31,0.233,3.347,0.645c-0.458,0.503-0.83,0.934-1.048,1.232c-0.763,1.043-1.051,1.948-1.118,2.679
		c-0.38-0.099-0.771-0.167-1.181-0.167c-0.336,0-0.735,0.045-1.155,0.144c-0.072-0.727-0.361-1.623-1.116-2.655
		c-0.224-0.305-0.604-0.746-1.075-1.264C1761.438,710.445,1762.915,710.419,1763.063,710.419z M1762.727,719.914
		c0.095,0.087,0.216,0.132,0.338,0.132c0.004,0,0.008-0.004,0.013-0.004s0.009,0.004,0.013,0.004c0.122,0,0.243-0.045,0.338-0.132
		l2.709-2.489c0.418,0.604,0.666,1.333,0.666,2.121c0,2.062-1.678,3.738-3.739,3.738s-3.738-1.677-3.738-3.738
		c0-0.96,0.245-1.669,0.607-2.199L1762.727,719.914z M1761.955,715.979c0.586-0.161,1.056-0.171,1.108-0.171
		c0.395,0,0.769,0.078,1.126,0.192l-1.112,2.389L1761.955,715.979z M1755.1,704.502c0.61-0.445,1.191-0.55,1.723-0.316
		c0.771,0.34,1.397,1.392,1.523,2.556c0.1,0.911-0.129,1.685-0.604,2.217c-1.447-1.48-2.972-2.98-3.694-3.686L1755.1,704.502z
		 M1750.745,709.957c-0.404-0.553-0.89-1.62,0.396-2.561l1.054-0.771c0.454,0.903,1.422,2.814,2.395,4.644
		C1753.334,711.82,1751.582,711.104,1750.745,709.957z M1753.013,706.028l0.216-0.157c1.22,1.191,5.759,5.651,6.757,7.015
		c0.766,1.049,1.077,2.062,0.899,2.932c-0.021,0.104-0.008,0.214,0.037,0.311l0.626,1.345l-1.093-1.004
		c-0.078-0.072-0.178-0.117-0.283-0.129c-0.898-0.099-1.747-0.687-2.522-1.747C1756.653,713.231,1753.779,707.554,1753.013,706.028z
		 M1772.19,719.544c0,5.034-4.095,9.129-9.127,9.129s-9.126-4.095-9.126-9.129c0-2.718,0.801-4.615,1.922-5.955
		c0.393,0.688,0.738,1.26,0.983,1.594c0.724,0.991,1.462,1.536,2.114,1.835c-0.385,0.655-0.632,1.481-0.632,2.528
		c0,2.612,2.126,4.738,4.738,4.738c2.613,0,4.739-2.126,4.739-4.738c0-0.911-0.271-1.756-0.719-2.479
		c0.68-0.285,1.461-0.835,2.228-1.884c0.217-0.296,0.513-0.776,0.851-1.361C1771.428,715.389,1772.19,717.378,1772.19,719.544z
		 M1768.505,714.593c-0.775,1.061-1.624,1.648-2.522,1.747c-0.105,0.012-0.205,0.057-0.283,0.129l-1.093,1.004l0.626-1.345
		c0.045-0.097,0.059-0.206,0.037-0.311c-0.178-0.87,0.134-1.883,0.899-2.932c0.998-1.363,5.537-5.823,6.757-7.015l0.216,0.157
		C1772.375,707.554,1769.501,713.231,1768.505,714.593z M1775.409,709.957c-0.837,1.146-2.59,1.863-3.844,1.312
		c0.973-1.829,1.94-3.74,2.395-4.644l1.054,0.771C1776.299,708.337,1775.813,709.404,1775.409,709.957z"/>
</g>
</svg>
