<svg baseProfile="tiny" xmlns="http://www.w3.org/2000/svg" width="66.518" height="53" viewBox="124.71 -39.189 66.518 53"><path d="M182.339-21.115l-4.539.028-2.969.018c-1.144 0-2.07.928-2.07 2.069v1.101h16.967v-1.18c0-1.139-.927-2.066-2.065-2.068l-5.32.033h-.004zm7.388 4.715h-16.967v21.056h16.967v-21.056zm-58.979 16.881h40.513v-19.481c0-1.968 1.601-3.569 3.565-3.569l2.219-.014v-10.858h-46.297v33.922zm8.831-22.448l9.348-5.948c.349-.223.813-.119 1.035.23.223.35.119.813-.229 1.036l-9.349 5.948c-.124.08-.264.117-.4.117-.248 0-.491-.123-.635-.347-.223-.35-.12-.813.23-1.036zm-1.143 7.644l20.166-12.831c.351-.222.812-.12 1.034.23.224.35.119.813-.229 1.036l-20.165 12.831c-.125.08-.265.117-.401.117-.248 0-.49-.123-.634-.347-.223-.349-.119-.813.229-1.036zm-8.438 16.304c-.414 0-.75-.336-.75-.75v-35.421c0-.414.336-.75.75-.75h47.797c.414 0 .75.336.75.75v11.6l3.039-.019v-13.012c0-1.138-.927-2.065-2.065-2.067l-51.242.08c-1.141 0-2.066.928-2.066 2.067v38.203c0 1.141.928 2.069 2.065 2.069l42.985-.068v-2.681l-41.263-.001zm42.762 4.175v4.084c0 1.14.926 2.067 2.062 2.069l12.831-.08c1.146 0 2.073-.927 2.073-2.066v-4.007h-16.966zm8.483 5.13c-1.163 0-2.109-.947-2.109-2.11s.946-2.11 2.109-2.11c1.164 0 2.111.946 2.111 2.11s-.947 2.11-2.111 2.11z" fill="none"/><circle cx="181.243" cy="9.176" r=".61" fill="none"/><path fill="#7A994A" d="M187.657-22.647l-4.573.028v-13.003c0-1.964-1.599-3.564-3.565-3.567l-51.243.08c-1.966 0-3.565 1.601-3.565 3.567v38.203c0 1.968 1.6 3.569 3.566 3.569l42.984-.068v4.079c0 1.968 1.601 3.569 3.565 3.569h.005l12.828-.08c1.968 0 3.568-1.6 3.568-3.566v-29.244c0-1.965-1.598-3.565-3.57-3.567zm-10.612.064l-2.219.014c-1.966 0-3.565 1.601-3.565 3.569v19.481h-40.513v-33.921h46.297v10.857zm-4.285 23.814v-17.631h16.967v21.057h-16.967v-3.426zm14.901-22.378c1.14.002 2.066.929 2.066 2.068v1.18h-16.967v-1.101c0-1.141.928-2.069 2.07-2.069l2.969-.018 4.539-.028h.002l5.321-.032zm-59.387 25.877c-1.14 0-2.065-.928-2.065-2.069v-38.203c0-1.14.927-2.068 2.066-2.068l51.241-.08c1.141.002 2.066.929 2.066 2.067v13.012l-3.039.019v-11.6c0-.414-.336-.75-.75-.75h-47.797c-.414 0-.75.336-.75.75v35.422c0 .414.336.75.75.75h41.263v2.681l-42.985.069zm59.38 7.5l-12.831.08c-1.139-.001-2.062-.929-2.062-2.069v-4.084h16.967v4.007c-.001 1.139-.928 2.066-2.074 2.066zm-6.411-5.164c-1.163 0-2.109.946-2.109 2.11s.946 2.11 2.109 2.11c1.164 0 2.111-.947 2.111-2.11s-.947-2.11-2.111-2.11zm0 2.72c-.336 0-.609-.274-.609-.61s.273-.61.609-.61c.337 0 .611.273.611.61s-.274.61-.611.61zm-41.261-30.37c.138 0 .276-.038.4-.117l9.349-5.948c.35-.223.453-.687.229-1.036-.222-.349-.688-.453-1.035-.23l-9.348 5.948c-.35.223-.453.686-.229 1.036.143.225.386.347.634.347zm-1.141 7.645c.139 0 .276-.038.401-.117l20.165-12.831c.35-.223.453-.686.229-1.036-.222-.35-.685-.452-1.034-.23l-20.165 12.831c-.351.223-.453.686-.23 1.036.141.224.386.347.634.347z"/></svg>