<?xml version="1.0" encoding="utf-8"?>
<!-- Generator: Adobe Illustrator 16.0.0, SVG Export Plug-In . SVG Version: 6.00 Build 0)  -->
<!DOCTYPE svg PUBLIC "-//W3C//DTD SVG 1.1 Tiny//EN" "http://www.w3.org/Graphics/SVG/1.1/DTD/svg11-tiny.dtd">
<svg version="1.1" baseProfile="tiny" id="Layer_4" xmlns="http://www.w3.org/2000/svg" xmlns:xlink="http://www.w3.org/1999/xlink"
	 x="0px" y="0px" width="36.962px" height="21.854px" viewBox="1849.672 704.11 36.962 21.854" xml:space="preserve">
<g>
	<path fill="#7A9C49" d="M1880.15,712.997c-1.948,0-3.695,0.868-4.884,2.233l-1.602-1.188c0.632-1.001,1.003-2.182,1.003-3.449
		c0-3.574-2.909-6.482-6.484-6.482s-6.484,2.908-6.484,6.482c0,1.263,0.368,2.438,0.995,3.436l-1.644,1.214
		c-1.189-1.372-2.941-2.245-4.896-2.245c-3.575,0-6.483,2.908-6.483,6.482c0,3.575,2.908,6.484,6.483,6.484s6.483-2.909,6.483-6.484
		c0-1.262-0.368-2.437-0.994-3.434l1.645-1.214c1.189,1.372,2.94,2.245,4.895,2.245c1.948,0,3.695-0.868,4.885-2.233l1.602,1.189
		c-0.631,1-1.002,2.18-1.002,3.446c0,3.575,2.908,6.484,6.482,6.484c3.575,0,6.483-2.909,6.483-6.484
		C1886.634,715.905,1883.726,712.997,1880.15,712.997z M1856.155,724.964c-3.023,0-5.483-2.46-5.483-5.484
		c0-3.023,2.46-5.482,5.483-5.482s5.483,2.459,5.483,5.482C1861.639,722.504,1859.179,724.964,1856.155,724.964z M1868.184,716.077
		c-3.024,0-5.484-2.46-5.484-5.484c0-3.023,2.46-5.482,5.484-5.482s5.484,2.459,5.484,5.482
		C1873.668,713.617,1871.208,716.077,1868.184,716.077z M1880.15,724.964c-3.023,0-5.482-2.46-5.482-5.484
		c0-3.023,2.459-5.482,5.482-5.482s5.483,2.459,5.483,5.482C1885.634,722.504,1883.174,724.964,1880.15,724.964z M1884.381,723.711
		c1.083-1.083,1.753-2.579,1.753-4.231C1886.134,721.132,1885.464,722.628,1884.381,723.711z"/>
	<path fill="#7A9C49" d="M1857.633,721.882h-1.099v-5.284c0-0.198-0.099-0.297-0.297-0.297h-0.288c-0.145,0-0.252,0.045-0.36,0.144
		l-1.152,1.125c-0.135,0.136-0.145,0.279,0,0.424l0.126,0.126c0.126,0.144,0.271,0.144,0.414,0.009l0.405-0.396
		c0.198-0.197,0.279-0.342,0.279-0.342h0.018c0,0-0.009,0.189-0.009,0.387v4.105h-1.107c-0.198,0-0.297,0.1-0.297,0.297v0.181
		c0,0.198,0.099,0.297,0.297,0.297h3.07c0.188,0,0.297-0.099,0.297-0.297v-0.181C1857.93,721.981,1857.821,721.882,1857.633,721.882
		z"/>
	<path fill="#7A9C49" d="M1869.881,712.722h-2.872c0.027-1.449,3.07-1.773,3.07-3.862c0-1.098-0.847-1.827-2.008-1.827
		c-1.026,0-1.611,0.612-1.854,0.954c-0.108,0.153-0.072,0.288,0.081,0.405l0.162,0.126c0.153,0.126,0.297,0.072,0.423-0.063
		c0.171-0.216,0.549-0.585,1.125-0.585c0.667,0,1.144,0.424,1.144,1.054c0,1.494-3.114,1.818-3.114,4.087v0.189
		c0,0.198,0.135,0.297,0.314,0.297h3.529c0.189,0,0.297-0.099,0.297-0.297v-0.181
		C1870.178,712.821,1870.07,712.722,1869.881,712.722z"/>
	<path fill="#7A9C49" d="M1880.277,718.76l1.594-1.837c0.099-0.108,0.135-0.216,0.135-0.36v-0.081c0-0.18-0.1-0.278-0.297-0.278
		h-3.205c-0.189,0-0.297,0.099-0.297,0.297v0.18c0,0.189,0.107,0.297,0.297,0.297h1.854c0.351,0,0.54-0.026,0.54-0.026v0.018
		c0,0-0.189,0.171-0.396,0.414l-1.224,1.449c-0.108,0.117-0.136,0.253-0.072,0.388l0.027,0.054c0.071,0.153,0.171,0.216,0.333,0.216
		h0.197c0.783,0,1.477,0.388,1.477,1.171c0,0.684-0.585,1.161-1.296,1.161c-0.612,0-1.071-0.315-1.306-0.504
		c-0.162-0.108-0.297-0.1-0.414,0.054l-0.144,0.207c-0.108,0.153-0.1,0.297,0.045,0.414c0.297,0.234,0.945,0.676,1.854,0.676
		c1.305,0,2.16-0.955,2.16-2.044C1882.141,719.39,1881.123,718.85,1880.277,718.76z"/>
</g>
</svg>
