<svg baseProfile="tiny" xmlns="http://www.w3.org/2000/svg" width="66.519" height="53" viewBox="811.839 -364.284 66.519 53"><path d="M869.469-346.209l-4.539.028-2.969.018c-1.144 0-2.07.928-2.07 2.069v1.1h16.967v-1.18c0-1.139-.927-2.066-2.066-2.068l-5.32.033h-.003zM876.857-341.495h-16.966v21.057000000000002h16.966zM817.878-324.613h40.513v-19.481c0-1.968 1.6-3.569 3.565-3.569l2.219-.014v-10.859h-46.297v33.923zm8.831-22.448l9.348-5.948c.348-.223.813-.119 1.035.23.223.35.119.813-.23 1.036l-9.348 5.948c-.124.08-.264.117-.401.117-.248 0-.491-.123-.634-.347-.223-.35-.12-.813.23-1.036zm-1.142 7.644l20.165-12.831c.351-.222.813-.12 1.035.23.223.35.119.813-.23 1.036l-20.165 12.831c-.125.08-.264.117-.401.117-.248 0-.491-.123-.634-.347-.223-.349-.119-.813.23-1.036zM817.128-323.113c-.414 0-.75-.336-.75-.75v-35.422c0-.414.336-.75.75-.75h47.797c.414 0 .75.336.75.75v11.6l3.039-.019v-13.012c0-1.138-.927-2.065-2.066-2.067l-51.242.08c-1.14 0-2.066.928-2.066 2.068v38.203c0 1.141.927 2.069 2.065 2.069l42.986-.068v-2.681h-41.263zM859.891-318.938v4.084c0 1.14.925 2.067 2.062 2.069l12.831-.08c1.146 0 2.073-.927 2.073-2.066v-4.007h-16.966zm8.482 5.13c-1.163 0-2.109-.947-2.109-2.11s.946-2.11 2.109-2.11c1.164 0 2.111.946 2.111 2.11s-.947 2.11-2.111 2.11z" fill="none"/><circle cx="868.373" cy="-315.918" r=".61" fill="none"/><path fill="#1A1A1A" d="M874.787-347.742l-4.573.028v-13.003c0-1.964-1.599-3.564-3.566-3.567l-51.243.08c-1.966 0-3.565 1.601-3.565 3.568v38.203c0 1.968 1.6 3.569 3.566 3.569l42.985-.068v4.079c0 1.968 1.6 3.569 3.565 3.569h.005l12.828-.08c1.968 0 3.568-1.6 3.568-3.566v-29.244c0-1.965-1.598-3.565-3.57-3.568zm-10.612.065l-2.219.014c-1.966 0-3.565 1.601-3.565 3.569v19.481h-40.513v-33.922h46.297v10.858zm-4.284 23.814v-17.631h16.967v21.057h-16.967v-3.426zm14.9-22.379c1.14.002 2.066.929 2.066 2.068v1.18h-16.967v-1.1c0-1.141.927-2.069 2.07-2.069l2.969-.018 4.539-.028h.002l5.321-.033zm-59.387 25.878c-1.139 0-2.065-.928-2.065-2.069v-38.203c0-1.14.927-2.068 2.066-2.068l51.242-.08c1.14.002 2.066.929 2.066 2.067v13.012l-3.039.019v-11.6c0-.414-.336-.75-.75-.75h-47.797c-.414 0-.75.336-.75.75v35.422c0 .414.336.75.75.75h41.263v2.681l-42.986.069zm59.38 7.5l-12.831.08c-1.138-.001-2.062-.929-2.062-2.069v-4.084h16.967v4.007c-.001 1.139-.928 2.066-2.074 2.066zM868.373-318.028c-1.163 0-2.109.946-2.109 2.11s.946 2.11 2.109 2.11c1.164 0 2.111-.947 2.111-2.11s-.947-2.11-2.111-2.11zm0 2.72c-.336 0-.609-.274-.609-.61s.273-.61.609-.61c.337 0 .611.273.611.61s-.274.61-.611.61zM827.112-345.678c.138 0 .277-.038.401-.117l9.348-5.948c.35-.223.453-.686.23-1.036-.222-.349-.688-.453-1.035-.23l-9.348 5.948c-.35.223-.453.686-.23 1.036.143.225.386.347.634.347zM825.971-338.034c.138 0 .276-.038.401-.117l20.165-12.831c.35-.223.453-.686.23-1.036-.222-.35-.685-.452-1.035-.23l-20.165 12.831c-.35.223-.453.686-.23 1.036.142.225.386.347.634.347z"/></svg>