<?xml version="1.0" encoding="utf-8"?>
<!-- Generator: Adobe Illustrator 16.0.0, SVG Export Plug-In . SVG Version: 6.00 Build 0)  -->
<!DOCTYPE svg PUBLIC "-//W3C//DTD SVG 1.1 Tiny//EN" "http://www.w3.org/Graphics/SVG/1.1/DTD/svg11-tiny.dtd">
<svg version="1.1" baseProfile="tiny" id="Layer_4" xmlns="http://www.w3.org/2000/svg" xmlns:xlink="http://www.w3.org/1999/xlink"
	 x="0px" y="0px" width="28.64px" height="28.641px" viewBox="1956.283 554.211 28.64 28.641" xml:space="preserve">
<path fill="#7A9C49" d="M1968.373,573.25c-0.012,0-0.024,0-0.037-0.001c-0.16-0.012-0.306-0.101-0.39-0.238l-2.577-4.219
	c-0.144-0.235-0.069-0.544,0.166-0.688c0.234-0.146,0.542-0.07,0.688,0.166l2.213,3.623l6.59-7.899
	c0.178-0.212,0.493-0.239,0.704-0.063c0.212,0.177,0.24,0.492,0.063,0.704l-7.036,8.436
	C1968.662,573.185,1968.521,573.25,1968.373,573.25z"/>
<path fill="#7A9C49" d="M1970.603,582.852c-7.896,0-14.319-6.424-14.319-14.32s6.424-14.32,14.319-14.32
	c7.896,0,14.32,6.424,14.32,14.32S1978.499,582.852,1970.603,582.852z M1970.603,555.211c-7.345,0-13.319,5.976-13.319,13.32
	s5.975,13.32,13.319,13.32s13.32-5.976,13.32-13.32S1977.947,555.211,1970.603,555.211z"/>
</svg>
