<?xml version="1.0" encoding="utf-8"?>
<!-- Generator: Adobe Illustrator 16.0.0, SVG Export Plug-In . SVG Version: 6.00 Build 0)  -->
<!DOCTYPE svg PUBLIC "-//W3C//DTD SVG 1.1 Tiny//EN" "http://www.w3.org/Graphics/SVG/1.1/DTD/svg11-tiny.dtd">
<svg version="1.1" baseProfile="tiny" id="Layer_4" xmlns="http://www.w3.org/2000/svg" xmlns:xlink="http://www.w3.org/1999/xlink"
	 x="0px" y="0px" width="24.959px" height="20.888px" viewBox="1643.365 704.863 24.959 20.888" xml:space="preserve">
<g>
	<g>
		<path fill="#7A994A" d="M1667.824,710.826c-0.128,0-0.256-0.049-0.354-0.146c-3.106-3.105-7.234-4.816-11.626-4.816
			s-8.52,1.711-11.626,4.816c-0.195,0.195-0.512,0.195-0.707,0s-0.195-0.512,0-0.707c3.295-3.295,7.675-5.109,12.333-5.109
			s9.038,1.814,12.333,5.109c0.195,0.195,0.195,0.512,0,0.707C1668.08,710.777,1667.952,710.826,1667.824,710.826z"/>
		<path fill="#7A994A" d="M1647.236,715.414c-0.128,0-0.256-0.049-0.354-0.146c-0.195-0.195-0.195-0.512,0-0.707
			c2.395-2.395,5.577-3.713,8.962-3.713c3.388,0,6.569,1.317,8.958,3.709c0.195,0.195,0.195,0.512,0,0.707s-0.512,0.195-0.707,0
			c-2.2-2.203-5.13-3.416-8.251-3.416c-3.118,0-6.05,1.215-8.255,3.42C1647.492,715.365,1647.364,715.414,1647.236,715.414z"/>
		<path fill="#7A994A" d="M1661.043,720.037c-0.128,0-0.257-0.049-0.354-0.146c-1.29-1.295-3.011-2.008-4.844-2.008
			c-1.829,0-3.55,0.713-4.845,2.008c-0.195,0.195-0.512,0.195-0.707,0s-0.195-0.512,0-0.707c1.483-1.483,3.455-2.301,5.552-2.301
			c2.101,0,4.072,0.817,5.553,2.301c0.194,0.196,0.194,0.513-0.001,0.708C1661.299,719.988,1661.171,720.037,1661.043,720.037z"/>
	</g>
	<path fill="#7A994A" d="M1655.849,725.751c-1.093,0-1.981-0.889-1.981-1.981s0.889-1.982,1.981-1.982s1.981,0.89,1.981,1.982
		S1656.941,725.751,1655.849,725.751z M1655.849,722.787c-0.541,0-0.981,0.44-0.981,0.982c0,0.541,0.44,0.981,0.981,0.981
		s0.981-0.44,0.981-0.981C1656.83,723.228,1656.39,722.787,1655.849,722.787z"/>
</g>
</svg>
