<svg baseProfile="tiny" xmlns="http://www.w3.org/2000/svg" width="36.962" height="21.854" viewBox="1849.672 704.11 36.962 21.854"><g fill="#7A9C49"><path d="M1880.15 712.997c-1.948 0-3.695.868-4.884 2.233l-1.602-1.188c.632-1.001 1.003-2.182 1.003-3.449 0-3.574-2.909-6.482-6.484-6.482s-6.484 2.908-6.484 6.482c0 1.263.368 2.438.995 3.436l-1.644 1.214c-1.189-1.372-2.941-2.245-4.896-2.245-3.575 0-6.483 2.908-6.483 6.482 0 3.575 2.908 6.484 6.483 6.484s6.483-2.909 6.483-6.484c0-1.262-.368-2.437-.994-3.434l1.645-1.214c1.189 1.372 2.94 2.245 4.895 2.245 1.948 0 3.695-.868 4.885-2.233l1.602 1.189c-.631 1-1.002 2.18-1.002 3.446 0 3.575 2.908 6.484 6.482 6.484 3.575 0 6.483-2.909 6.483-6.484.001-3.574-2.907-6.482-6.483-6.482zm-23.995 11.967c-3.023 0-5.483-2.46-5.483-5.484 0-3.023 2.46-5.482 5.483-5.482s5.483 2.459 5.483 5.482c.001 3.024-2.459 5.484-5.483 5.484zm12.029-8.887c-3.024 0-5.484-2.46-5.484-5.484 0-3.023 2.46-5.482 5.484-5.482s5.484 2.459 5.484 5.482c0 3.024-2.46 5.484-5.484 5.484zm11.966 8.887c-3.023 0-5.482-2.46-5.482-5.484 0-3.023 2.459-5.482 5.482-5.482s5.483 2.459 5.483 5.482c.001 3.024-2.459 5.484-5.483 5.484zm4.231-1.253c1.083-1.083 1.753-2.579 1.753-4.231 0 1.652-.67 3.148-1.753 4.231zM1857.633 721.882h-1.099v-5.284c0-.198-.099-.297-.297-.297h-.288c-.145 0-.252.045-.36.144l-1.152 1.125c-.135.136-.145.279 0 .424l.126.126c.126.144.271.144.414.009l.405-.396c.198-.197.279-.342.279-.342h.018l-.009.387v4.105h-1.107c-.198 0-.297.1-.297.297v.181c0 .198.099.297.297.297h3.07c.188 0 .297-.099.297-.297v-.181c0-.199-.109-.298-.297-.298zM1869.881 712.722h-2.872c.027-1.449 3.07-1.773 3.07-3.862 0-1.098-.847-1.827-2.008-1.827-1.026 0-1.611.612-1.854.954-.108.153-.072.288.081.405l.162.126c.153.126.297.072.423-.063.171-.216.549-.585 1.125-.585.667 0 1.144.424 1.144 1.054 0 1.494-3.114 1.818-3.114 4.087v.189c0 .198.135.297.314.297h3.529c.189 0 .297-.099.297-.297v-.181c0-.198-.108-.297-.297-.297zM1880.277 718.76l1.594-1.837c.099-.108.135-.216.135-.36v-.081c0-.18-.1-.278-.297-.278h-3.205c-.189 0-.297.099-.297.297v.18c0 .189.107.297.297.297h1.854c.351 0 .54-.026.54-.026v.018s-.189.171-.396.414l-1.224 1.449c-.108.117-.136.253-.072.388l.027.054c.071.153.171.216.333.216h.197c.783 0 1.477.388 1.477 1.171 0 .684-.585 1.161-1.296 1.161-.612 0-1.071-.315-1.306-.504-.162-.108-.297-.1-.414.054l-.144.207c-.108.153-.1.297.045.414.297.234.945.676 1.854.676 1.305 0 2.16-.955 2.16-2.044.002-1.236-1.016-1.776-1.862-1.866z"/></g></svg>