<svg baseProfile="tiny" xmlns="http://www.w3.org/2000/svg" width="27.552" height="26.611" viewBox="1749.302 703.062 27.552 26.611"><path d="M1759.325 719.546c0 2.062 1.677 3.738 3.738 3.738s3.739-1.677 3.739-3.738c0-.788-.248-1.518-.666-2.121l-2.709 2.489c-.095.087-.216.132-.338.132l-.013-.004-.013.004c-.122 0-.243-.045-.338-.132l-2.794-2.567c-.361.53-.606 1.239-.606 2.199zm4.864-3.546c-.357-.114-.731-.192-1.126-.192-.053 0-.522.01-1.108.171l1.122 2.41 1.112-2.389zm-13.048-8.604c-1.285.94-.8 2.008-.396 2.561.837 1.146 2.589 1.863 3.844 1.312-.973-1.829-1.94-3.74-2.395-4.644l-1.053.771zm10.767 7.555c.42-.099.819-.144 1.155-.144.409 0 .801.068 1.181.167.067-.73.355-1.636 1.118-2.679.218-.299.59-.729 1.048-1.232-1.037-.411-2.164-.645-3.347-.645-.148 0-1.626.026-3.347.613.472.518.852.959 1.075 1.264.756 1.033 1.045 1.93 1.117 2.656zm-4.167-5.993c.476-.532.704-1.306.604-2.217-.126-1.164-.752-2.216-1.523-2.556-.531-.233-1.112-.129-1.723.316l-1.053.771c.724.706 2.248 2.206 3.695 3.686zm17.273-1.562l-1.054-.771c-.454.903-1.422 2.814-2.395 4.644 1.254.551 3.007-.166 3.844-1.312.404-.553.89-1.62-.395-2.561zm-5.702 7.787c-.767 1.049-1.548 1.599-2.228 1.884.447.724.719 1.568.719 2.479 0 2.612-2.126 4.738-4.739 4.738-2.612 0-4.738-2.126-4.738-4.738 0-1.047.247-1.873.632-2.528-.652-.299-1.391-.844-2.114-1.835-.245-.334-.591-.905-.983-1.594-1.121 1.34-1.922 3.237-1.922 5.955 0 5.034 4.094 9.129 9.126 9.129s9.127-4.095 9.127-9.129c0-2.166-.763-4.155-2.028-5.723-.34.585-.636 1.066-.852 1.362z" fill="none"/><path fill="#7A9C49" d="M1775.604 706.59l-1.527-1.117-.003-.003-.898-.655-1.53-1.119c-1.145-.838-2.109-.693-2.717-.425-1.099.485-1.948 1.837-2.113 3.363-.134 1.231.19 2.311.89 3.055l-.566.593c-1.248-.551-2.624-.862-4.074-.862-.044 0-1.929.023-4.062.848l-.552-.578c.699-.744 1.023-1.823.89-3.055-.165-1.526-1.015-2.878-2.113-3.363-.61-.269-1.573-.413-2.717.425l-1.53 1.119-.898.655-.003.003-1.527 1.117c-1.409 1.03-1.645 2.546-.613 3.957.827 1.132 2.312 1.92 3.724 1.92.488 0 .966-.098 1.406-.305l.28.514c-1.391 1.496-2.41 3.679-2.41 6.868 0 5.585 4.543 10.129 10.126 10.129 5.584 0 10.127-4.544 10.127-10.129 0-2.544-.95-4.866-2.507-6.646l.403-.735c.44.207.918.305 1.406.305 1.411 0 2.897-.789 3.724-1.92 1.028-1.413.793-2.929-.616-3.959zm-7.795.151c.126-1.164.752-2.216 1.523-2.556.533-.233 1.113-.129 1.723.316l1.053.771c-.723.705-2.247 2.205-3.694 3.686-.476-.532-.705-1.306-.605-2.217zm-4.746 3.678c1.183 0 2.31.233 3.347.645-.458.503-.83.934-1.048 1.232-.763 1.043-1.051 1.948-1.118 2.679-.38-.099-.771-.167-1.181-.167-.336 0-.735.045-1.155.144-.072-.727-.361-1.623-1.116-2.655-.224-.305-.604-.746-1.075-1.264 1.721-.588 3.198-.614 3.346-.614zm-.336 9.495c.095.087.216.132.338.132l.013-.004.013.004c.122 0 .243-.045.338-.132l2.709-2.489c.418.604.666 1.333.666 2.121 0 2.062-1.678 3.738-3.739 3.738s-3.738-1.677-3.738-3.738c0-.96.245-1.669.607-2.199l2.793 2.567zm-.772-3.935c.586-.161 1.056-.171 1.108-.171.395 0 .769.078 1.126.192l-1.112 2.389-1.122-2.41zm-6.855-11.477c.61-.445 1.191-.55 1.723-.316.771.34 1.397 1.392 1.523 2.556.1.911-.129 1.685-.604 2.217-1.447-1.48-2.972-2.98-3.694-3.686l1.052-.771zm-4.355 5.455c-.404-.553-.89-1.62.396-2.561l1.054-.771c.454.903 1.422 2.814 2.395 4.644-1.256.551-3.008-.165-3.845-1.312zm2.268-3.929l.216-.157c1.22 1.191 5.759 5.651 6.757 7.015.766 1.049 1.077 2.062.899 2.932-.021.104-.008.214.037.311l.626 1.345-1.093-1.004c-.078-.072-.178-.117-.283-.129-.898-.099-1.747-.687-2.522-1.747-.997-1.363-3.871-7.04-4.637-8.566zm19.177 13.516c0 5.034-4.095 9.129-9.127 9.129s-9.126-4.095-9.126-9.129c0-2.718.801-4.615 1.922-5.955.393.688.738 1.26.983 1.594.724.991 1.462 1.536 2.114 1.835-.385.655-.632 1.481-.632 2.528 0 2.612 2.126 4.738 4.738 4.738 2.613 0 4.739-2.126 4.739-4.738 0-.911-.271-1.756-.719-2.479.68-.285 1.461-.835 2.228-1.884.217-.296.513-.776.851-1.361 1.267 1.567 2.029 3.556 2.029 5.722zm-3.685-4.951c-.775 1.061-1.624 1.648-2.522 1.747-.105.012-.205.057-.283.129l-1.093 1.004.626-1.345c.045-.097.059-.206.037-.311-.178-.87.134-1.883.899-2.932.998-1.363 5.537-5.823 6.757-7.015l.216.157c-.767 1.527-3.641 7.204-4.637 8.566zm6.904-4.636c-.837 1.146-2.59 1.863-3.844 1.312.973-1.829 1.94-3.74 2.395-4.644l1.054.771c1.285.941.799 2.008.395 2.561z"/></svg>