<svg baseProfile="tiny" xmlns="http://www.w3.org/2000/svg" width="82.458" height="51.5" viewBox="2081.344 -586.173 82.458 51.5"><path d="M2095.132-572.393h46.637v24.683h-46.637zm67.17-7.605c0-1.648-3.512-4.675-9.25-4.675h-60.956c-5.739 0-9.252 3.027-9.252 4.675v37.765c0 3.011 3.178 6.06 9.252 6.06h60.956c6.072 0 9.25-3.048 9.25-6.06v-37.765zm-19.033 33.789h-49.637v-27.683h49.637v27.683zm8.572-10.704c-1.881 0-3.404-1.524-3.404-3.405 0-1.879 1.523-3.403 3.404-3.403s3.404 1.523 3.404 3.403c0 1.88-1.523 3.405-3.404 3.405z" fill="none"/><path d="M2163.802-542.233v-37.765c0-2.579-4.09-6.175-10.75-6.175h-60.956c-6.661 0-10.752 3.597-10.752 6.175v37.765c0 3.757 3.693 7.56 10.752 7.56h60.956c7.057 0 10.75-3.803 10.75-7.56zm-10.75 6.06h-60.956c-6.074 0-9.252-3.048-9.252-6.06v-37.765c0-1.648 3.513-4.675 9.252-4.675h60.956c5.738 0 9.25 3.027 9.25 4.675v37.765c0 3.011-3.178 6.06-9.25 6.06zm-59.42-10.036h49.637v-27.683h-49.637v27.683zm1.5-26.184h46.637v24.683h-46.637v-24.683z"/><circle cx="2151.841" cy="-560.317" r="3.404"/></svg>