<?xml version="1.0" encoding="utf-8"?>
<!-- Generator: Adobe Illustrator 16.0.0, SVG Export Plug-In . SVG Version: 6.00 Build 0)  -->
<!DOCTYPE svg PUBLIC "-//W3C//DTD SVG 1.1//EN" "http://www.w3.org/Graphics/SVG/1.1/DTD/svg11.dtd">
<svg version="1.1" id="Layer_1" xmlns="http://www.w3.org/2000/svg" xmlns:xlink="http://www.w3.org/1999/xlink" x="0px" y="0px"
	 width="183.263px" height="148.939px" viewBox="0 0 183.263 148.939" enable-background="new 0 0 183.263 148.939"
	 xml:space="preserve">
<g>
	<defs>
		<rect id="SVGID_1_" width="183.263" height="148.939"/>
	</defs>
	<clipPath id="SVGID_2_">
		<use xlink:href="#SVGID_1_"  overflow="visible"/>
	</clipPath>
	<path clip-path="url(#SVGID_2_)" fill="#231F20" d="M183.263,17.63c-6.735,2.996-13.987,5.016-21.594,5.918
		c7.764-4.65,13.725-12.016,16.533-20.802c-7.266,4.312-15.309,7.44-23.875,9.129C147.468,4.568,137.695,0,126.884,0
		c-20.762,0-37.601,16.838-37.601,37.601c0,2.946,0.336,5.814,0.976,8.566C59.01,44.602,31.301,29.636,12.761,6.883
		c-3.237,5.555-5.093,12.008-5.093,18.902c0,13.048,6.641,24.553,16.726,31.298c-6.162-0.198-11.959-1.886-17.027-4.707
		c-0.004,0.156-0.004,0.316-0.004,0.476c0,18.213,12.96,33.412,30.163,36.867c-3.154,0.861-6.476,1.322-9.905,1.322
		c-2.427,0-4.781-0.236-7.077-0.679c4.788,14.938,18.671,25.812,35.122,26.113c-12.868,10.085-29.08,16.094-46.694,16.094
		c-3.035,0-6.027-0.178-8.97-0.523c16.641,10.67,36.406,16.893,57.637,16.893c69.16,0,106.975-57.295,106.975-106.979
		c0-1.629-0.033-3.255-0.105-4.866C171.852,31.797,178.228,25.171,183.263,17.63"/>
</g>
</svg>
