<svg baseProfile="tiny" xmlns="http://www.w3.org/2000/svg" width="27.916" height="22.691" viewBox="0 0 27.916 22.691"><path class="twittericon" d="M27.49 2.336c-1.027.454-2.131.763-3.289.899 1.186-.707 2.092-1.831 2.518-3.169-1.106.658-2.33 1.135-3.639 1.389-1.043-1.112-2.531-1.808-4.182-1.808-3.158 0-5.724 2.565-5.724 5.729 0 .447.049.884.146 1.305-4.758-.241-8.978-2.519-11.804-5.988-.494.85-.773 1.835-.773 2.883 0 1.984 1.01 3.74 2.545 4.768-.936-.029-1.82-.287-2.597-.716v.07c0 2.776 1.975 5.094 4.596 5.618-.479.134-.985.2-1.51.2-.369 0-.725-.032-1.074-.101.728 2.272 2.84 3.934 5.351 3.978-1.961 1.535-4.433 2.448-7.112 2.448-.463 0-.92-.023-1.367-.075 2.535 1.622 5.545 2.571 8.778 2.571 10.537 0 16.295-8.728 16.295-16.299 0-.248-.004-.497-.015-.741 1.119-.806 2.094-1.814 2.857-2.961"/></svg>